<svg xmlns="http://www.w3.org/2000/svg" version="1.1" xmlns:xlink="http://www.w3.org/1999/xlink" xmlns:svgjs="http://svgjs.dev/svgjs" width="2000" height="1500" viewBox="0 0 2000 1500"><rect width="2000" height="1500" fill="#3682ae"></rect><g transform="matrix(0.75,0,0,0.75,249.090909090909,564.624976264278)"><svg viewBox="0 0 396 98" data-background-color="#3682ae" preserveAspectRatio="xMidYMid meet" height="494" width="2000" xmlns="http://www.w3.org/2000/svg" xmlns:xlink="http://www.w3.org/1999/xlink"><g id="tight-bounds" transform="matrix(1,0,0,1,0.2400000000000091,0.033069706074911664)"><svg viewBox="0 0 395.52 97.93386058785016" height="97.93386058785016" width="395.52"><g><svg viewBox="0 0 556.9956819944186 137.9165085671418" height="97.93386058785016" width="395.52"><g transform="matrix(1,0,0,1,0,19.060819924981246)"><svg viewBox="0 0 395.52 99.7948687171793" height="99.7948687171793" width="395.52"><g id="textblocktransform"><svg viewBox="0 0 395.52 99.7948687171793" height="99.7948687171793" width="395.52" id="textblock"><g><svg viewBox="0 0 395.52 99.7948687171793" height="99.7948687171793" width="395.52"><g transform="matrix(1,0,0,1,0,0)"><svg width="395.52" viewBox="5.35 -37.9 199.94 50.45" height="99.7948687171793" data-palette-color="#96bdd4"><path d="M27.3 0L17.55-16.05 10.2-16.05 10.2 0 5.35 0 5.35-37.9 18.6-37.9Q31-37.9 31-26.9L31-26.9Q31-22.55 28.93-19.88 26.85-17.2 22.7-16.4L22.7-16.4 32.85 0 27.3 0ZM10.2-33.65L10.2-20.3 18.6-20.3Q26-20.3 26.05-26.9L26.05-26.9Q26.05-30.4 24.2-32.02 22.35-33.65 18.6-33.65L18.6-33.65 10.2-33.65ZM58.05-27.65L62.75-27.65 62.75 0 58.05 0 58.05-2.95Q53.95 0.6 49.6 0.6L49.6 0.6Q44.5 0.6 42.02-2.1 39.55-4.8 39.55-10.95L39.55-10.95 39.55-27.65 44.25-27.65 44.25-10.95Q44.25-7.05 45.57-5.4 46.9-3.75 50.25-3.75L50.25-3.75Q54.15-3.75 58.05-7.15L58.05-7.15 58.05-27.65ZM90.34-27.65L95.05-27.65 95.05 11.7 90.34 11.7 90.34-2.5Q86.4 0.85 82.34 0.85L82.34 0.85Q76.75 0.85 73.4-2.9 70.05-6.65 70.05-13.8L70.05-13.8Q70.05-20.95 73.4-24.7 76.75-28.45 82.34-28.45L82.34-28.45Q86.34-28.45 90.34-25.05L90.34-25.05 90.34-27.65ZM82.95-3.5Q86.55-3.5 90.34-6.6L90.34-6.6 90.34-20.95Q86.65-24.05 82.95-24.05L82.95-24.05Q79-24.05 76.97-21.45 74.95-18.85 74.95-13.8L74.95-13.8Q74.95-8.75 76.97-6.13 79-3.5 82.95-3.5L82.95-3.5ZM112.54-27.65Q116.94-27.65 119.24-26.18 121.54-24.7 122.29-22.23 123.04-19.75 123.04-16L123.04-16 123.04 0 118.34 0 118.34-2.75Q116.44-0.95 114.54-0.15 112.64 0.65 110.44 0.65L110.44 0.65Q107.84 0.65 105.74-0.48 103.64-1.6 102.42-3.73 101.19-5.85 101.19-8.75L101.19-8.75Q101.19-13.25 103.99-15.73 106.79-18.2 111.54-18.2L111.54-18.2Q115.29-18.2 118.29-16.55L118.29-16.55Q118.24-19 117.79-20.45 117.34-21.9 115.94-22.68 114.54-23.45 111.79-23.45L111.79-23.45 108.09-23.45 108.09-27.65 112.54-27.65ZM111.09-3.4Q112.79-3.4 114.67-4.2 116.54-5 118.34-6.6L118.34-6.6 118.34-12.9Q115.54-14.3 112.24-14.3L112.24-14.3Q109.59-14.3 107.79-13.03 105.99-11.75 105.99-8.75L105.99-8.75Q105.99-5.95 107.52-4.67 109.04-3.4 111.09-3.4L111.09-3.4ZM148.29-27.65L153.04-27.65 140.79 4.45Q139.49 7.85 138.44 9.5 137.39 11.15 135.97 11.85 134.54 12.55 132.04 12.55L132.04 12.55Q130.59 12.55 129.09 12.15L129.09 12.15 129.09 7.9Q130.39 8.2 131.69 8.2L131.69 8.2Q133.39 8.2 134.37 7.2 135.34 6.2 136.49 3.25L136.49 3.25 137.79-0.1 127.29-27.65 132.19-27.65 140.14-6.25 148.29-27.65ZM176.04-27.65L180.79-27.65 168.54 4.45Q167.24 7.85 166.19 9.5 165.14 11.15 163.71 11.85 162.29 12.55 159.79 12.55L159.79 12.55Q158.34 12.55 156.84 12.15L156.84 12.15 156.84 7.9Q158.14 8.2 159.44 8.2L159.44 8.2Q161.14 8.2 162.11 7.2 163.09 6.2 164.24 3.25L164.24 3.25 165.54-0.1 155.04-27.65 159.94-27.65 167.89-6.25 176.04-27.65ZM194.79-27.65Q199.19-27.65 201.49-26.18 203.79-24.7 204.54-22.23 205.29-19.75 205.29-16L205.29-16 205.29 0 200.59 0 200.59-2.75Q198.69-0.95 196.79-0.15 194.89 0.65 192.69 0.65L192.69 0.65Q190.09 0.65 187.99-0.48 185.89-1.6 184.66-3.73 183.44-5.85 183.44-8.75L183.44-8.75Q183.44-13.25 186.24-15.73 189.04-18.2 193.79-18.2L193.79-18.2Q197.54-18.2 200.54-16.55L200.54-16.55Q200.49-19 200.04-20.45 199.59-21.9 198.19-22.68 196.79-23.45 194.04-23.45L194.04-23.45 190.34-23.45 190.34-27.65 194.79-27.65ZM193.34-3.4Q195.04-3.4 196.91-4.2 198.79-5 200.59-6.6L200.59-6.6 200.59-12.9Q197.79-14.3 194.49-14.3L194.49-14.3Q191.84-14.3 190.04-13.03 188.24-11.75 188.24-8.75L188.24-8.75Q188.24-5.95 189.76-4.67 191.29-3.4 193.34-3.4L193.34-3.4Z" opacity="1" transform="matrix(1,0,0,1,0,0)" fill="#96bdd4" class="wordmark-text-0" data-fill-palette-color="primary" id="text-0"></path></svg></g></svg></g></svg></g></svg></g><g transform="matrix(1,0,0,1,419.0791734272768,0)"><svg viewBox="0 0 137.9165085671418 137.9165085671418" height="137.9165085671418" width="137.9165085671418"><g data-palette-color="#f64d08"><rect width="37.69717900835209" height="137.9165085671418" fill="#f64d08" stroke="transparent" data-fill-palette-color="accent" x="0" fill-opacity="1"></rect><rect width="37.69717900835209" height="137.9165085671418" fill="#f64d08" stroke="transparent" data-fill-palette-color="accent" x="45.9721695223806" fill-opacity="0.75"></rect><rect width="37.69717900835209" height="137.9165085671418" fill="#f64d08" stroke="transparent" data-fill-palette-color="accent" x="91.9443390447612" fill-opacity="0.5"></rect></g></svg></g></svg></g><defs></defs></svg><rect width="395.52" height="97.93386058785016" fill="none" stroke="none" visibility="hidden"></rect></g></svg></g></svg>