<svg xmlns="http://www.w3.org/2000/svg" version="1.1" xmlns:xlink="http://www.w3.org/1999/xlink" viewBox="0 0 19.71389545220268 5.878073918999555"><g transform="matrix(1,0,0,1,5.414105265604423,1.9497869594997774)"><g clip-path="url(#SvgjsClipPath1001)"><path d=" M -4.55013661220929 -1.0858183061046445 L -0.40000000000000036 -1.0858183061046445 L -0.40000000000000036 3.064318306104645 L -4.55013661220929 3.064318306104645 Z M -4.467133879965104 -1.0028155738604587 L -4.467133879965104 2.981315573860458 L -0.483002732244187 2.981315573860458 L -0.483002732244187 -1.002815573860459 Z" fill="#ffffff" transform="matrix(1,0,0,1,0,0)" fill-rule="nonzero"></path><g clip-path="url(#SvgjsClipPath100023b4e6d4-db78-4e54-b006-054b40291a7c)"><path d=" M -1.3204126334834019 1.9217927024020796 L -1.1086893816038925 1.799543260224063 L -1.108706843315388 0.22183397235244318 L -2.4750857678161404 -0.5670512295784833 L -3.841447230605398 0.2218077797852005 L -3.8414297688939025 1.7995170676568204 L -3.629706517014393 1.9217577789790892 L -3.629723978725888 0.34403102939597385 L -2.4750857678161404 -0.3225785377896937 L -1.3204300951948968 0.34405722196321675 L -1.3204126334834019 1.9217927024020796 Z" fill="#ffffff" transform="matrix(1,0,0,1,0,0)" fill-rule="nonzero"></path></g><g clip-path="url(#SvgjsClipPath100023b4e6d4-db78-4e54-b006-054b40291a7c)"><path d=" M -1.6805517022165106 2.129709301175632 L -1.468837181192749 2.0074773207091106 L -1.4688546429042444 0.42975930198174317 L -2.4750857678161404 -0.15119183946413595 L -3.4812994310165415 0.42973310941450027 L -3.481281969305046 2.00744239728612 L -3.2695587174255367 2.129683108608389 L -3.2695761791370317 0.5519650898810213 L -2.4750770369603927 0.09328085232465355 L -1.6805778947837537 0.5519825515925165 L -1.6805517022165106 2.129709301175632 Z" fill="#ffffff" transform="matrix(1,0,0,1,0,0)" fill-rule="nonzero"></path></g><g clip-path="url(#SvgjsClipPath100023b4e6d4-db78-4e54-b006-054b40291a7c)"><path d=" M -2.0407169635168625 0.759899150366069 L -2.0406995018053675 2.337625899949184 L -1.8289762499258577 2.2153939194826626 L -1.8290024424931008 0.6376759007552957 L -2.4750857678161404 0.2646588197944637 L -3.1211516314276846 0.6376584390438003 L -3.1211341697161896 2.2153764577711677 L -2.90941091783668 2.3376171690934364 L -2.9094283795481752 0.7598904195103215 L -2.4750770369603927 0.5091315115832533 L -2.0407169635168625 0.759899150366069 Z" fill="#ffffff" transform="matrix(1,0,0,1,0,0)" fill-rule="nonzero"></path></g><g clip-path="url(#SvgjsClipPath100023b4e6d4-db78-4e54-b006-054b40291a7c)"><path d=" M -2.1891240495147146 2.4233192491119624 L -2.18914151122621 0.8456012303845952 L -2.4008647631057194 0.7233692499180742 L -2.4008385705384763 2.5455512295784835 L -2.1891240495147146 2.4233192491119624 Z" fill="#ffffff" transform="matrix(1,0,0,1,0,0)" fill-rule="nonzero"></path></g><g clip-path="url(#SvgjsClipPath100023b4e6d4-db78-4e54-b006-054b40291a7c)"><path d=" M -2.5492631182478234 2.5455512295784835 L -2.549289310815066 0.7233605190623265 L -2.7610038318388277 0.8455924995288477 L -2.760986370127333 2.4233105182562147 L -2.5492631182478234 2.5455512295784835 Z" fill="#ffffff" transform="matrix(1,0,0,1,0,0)" fill-rule="nonzero"></path></g></g><g><path d=" M 0.8475 0.06599999999999995 Q 0.8865000000000001 0.08549999999999991 0.89325 0.12749999999999995 Q 0.9 0.16949999999999987 0.8715 0.20399999999999996 Q 0.852 0.23099999999999998 0.82125 0.23399999999999987 Q 0.7905 0.23699999999999988 0.759 0.22199999999999998 Q 0.723 0.2054999999999999 0.68325 0.1964999999999999 Q 0.6435 0.1874999999999999 0.6 0.1874999999999999 Q 0.519 0.1874999999999999 0.45525 0.21299999999999997 Q 0.3915 0.23849999999999993 0.34650000000000003 0.28574999999999995 Q 0.3015 0.33299999999999996 0.27825 0.39749999999999996 Q 0.255 0.46199999999999997 0.255 0.5399999999999999 Q 0.255 0.6315 0.28125 0.699 Q 0.3075 0.7665 0.354 0.8114999999999999 Q 0.4005 0.8564999999999999 0.4635 0.87825 Q 0.5265 0.8999999999999999 0.6 0.8999999999999999 Q 0.6405 0.8999999999999999 0.681 0.8925 Q 0.7215 0.885 0.759 0.8654999999999999 Q 0.7905 0.8504999999999999 0.82125 0.855 Q 0.852 0.8594999999999999 0.873 0.8865 Q 0.903 0.9239999999999999 0.89475 0.9637499999999999 Q 0.8865000000000001 1.0034999999999998 0.849 1.0214999999999999 Q 0.81 1.041 0.76875 1.05375 Q 0.7275 1.0665 0.6855 1.07325 Q 0.6435 1.0799999999999998 0.6 1.0799999999999998 Q 0.492 1.0799999999999998 0.39525 1.0454999999999999 Q 0.2985 1.011 0.22275 0.9435 Q 0.147 0.8759999999999999 0.10350000000000001 0.7747499999999999 Q 0.06 0.6735 0.06 0.5399999999999999 Q 0.06 0.4245 0.09975 0.32699999999999996 Q 0.1395 0.22949999999999993 0.21225 0.1582499999999999 Q 0.28500000000000003 0.08699999999999997 0.384 0.047250000000000014 Q 0.483 0.00749999999999984 0.6 0.00749999999999984 Q 0.666 0.00749999999999984 0.729 0.022499999999999964 Q 0.792 0.03749999999999987 0.8475 0.06599999999999995 M 2.019021240234375 0.5399999999999999 Q 2.019021240234375 0.6524999999999999 1.981521240234375 0.75 Q 1.944021240234375 0.8474999999999999 1.875771240234375 0.92175 Q 1.807521240234375 0.996 1.713771240234375 1.038 Q 1.620021240234375 1.0799999999999998 1.509021240234375 1.0799999999999998 Q 1.398021240234375 1.0799999999999998 1.305021240234375 1.038 Q 1.212021240234375 0.996 1.143771240234375 0.92175 Q 1.075521240234375 0.8474999999999999 1.038021240234375 0.75 Q 1.000521240234375 0.6524999999999999 1.000521240234375 0.5399999999999999 Q 1.000521240234375 0.4274999999999999 1.038021240234375 0.32999999999999996 Q 1.075521240234375 0.23249999999999993 1.143771240234375 0.1582499999999999 Q 1.212021240234375 0.08399999999999996 1.305021240234375 0.041999999999999815 Q 1.398021240234375 0 1.509021240234375 0 Q 1.620021240234375 0 1.713771240234375 0.041999999999999815 Q 1.807521240234375 0.08399999999999996 1.875771240234375 0.1582499999999999 Q 1.944021240234375 0.23249999999999993 1.981521240234375 0.32999999999999996 Q 2.019021240234375 0.4274999999999999 2.019021240234375 0.5399999999999999 M 1.8240212402343752 0.5399999999999999 Q 1.8240212402343752 0.4394999999999999 1.783521240234375 0.3577499999999999 Q 1.743021240234375 0.2759999999999999 1.672521240234375 0.22799999999999998 Q 1.602021240234375 0.17999999999999994 1.509021240234375 0.17999999999999994 Q 1.416021240234375 0.17999999999999994 1.345521240234375 0.22799999999999998 Q 1.275021240234375 0.2759999999999999 1.235271240234375 0.357 Q 1.195521240234375 0.43799999999999994 1.195521240234375 0.5399999999999999 Q 1.195521240234375 0.6405 1.235271240234375 0.72225 Q 1.275021240234375 0.8039999999999999 1.345521240234375 0.852 Q 1.416021240234375 0.8999999999999999 1.509021240234375 0.8999999999999999 Q 1.602021240234375 0.8999999999999999 1.672521240234375 0.852 Q 1.743021240234375 0.8039999999999999 1.783521240234375 0.72225 Q 1.8240212402343752 0.6405 1.8240212402343752 0.5399999999999999 M 2.87845751953125 0.014999999999999902 Q 2.91145751953125 0.014999999999999902 2.94370751953125 0.038999999999999924 Q 2.97595751953125 0.06299999999999994 2.97595751953125 0.10349999999999993 Q 2.97595751953125 0.1319999999999999 2.95495751953125 0.16049999999999998 L 2.38045751953125 0.8985 L 2.36245751953125 0.8925 L 2.86345751953125 0.8925 Q 2.90245751953125 0.8925 2.92870751953125 0.91575 Q 2.95495751953125 0.939 2.95495751953125 0.978 Q 2.95495751953125 1.0154999999999998 2.92870751953125 1.04025 Q 2.90245751953125 1.065 2.86345751953125 1.065 L 2.20495751953125 1.065 Q 2.16595751953125 1.065 2.13745751953125 1.03725 Q 2.10895751953125 1.0094999999999998 2.10895751953125 0.9764999999999999 Q 2.10895751953125 0.948 2.12995751953125 0.9195 L 2.7059575195312497 0.17849999999999988 L 2.7194575195312503 0.1874999999999999 L 2.26495751953125 0.1874999999999999 Q 2.22595751953125 0.1874999999999999 2.19970751953125 0.16349999999999998 Q 2.17345751953125 0.13949999999999996 2.17345751953125 0.10049999999999992 Q 2.17345751953125 0.06149999999999989 2.19970751953125 0.038249999999999895 Q 2.22595751953125 0.014999999999999902 2.26495751953125 0.014999999999999902 L 2.87845751953125 0.014999999999999902 M 3.850472900390625 0.014999999999999902 Q 3.883472900390625 0.014999999999999902 3.915722900390625 0.038999999999999924 Q 3.947972900390625 0.06299999999999994 3.947972900390625 0.10349999999999993 Q 3.947972900390625 0.1319999999999999 3.926972900390625 0.16049999999999998 L 3.352472900390625 0.8985 L 3.334472900390625 0.8925 L 3.835472900390625 0.8925 Q 3.874472900390625 0.8925 3.900722900390625 0.91575 Q 3.926972900390625 0.939 3.926972900390625 0.978 Q 3.926972900390625 1.0154999999999998 3.900722900390625 1.04025 Q 3.874472900390625 1.065 3.835472900390625 1.065 L 3.176972900390625 1.065 Q 3.137972900390625 1.065 3.109472900390625 1.03725 Q 3.080972900390625 1.0094999999999998 3.080972900390625 0.9764999999999999 Q 3.080972900390625 0.948 3.101972900390625 0.9195 L 3.6779729003906247 0.17849999999999988 L 3.6914729003906253 0.1874999999999999 L 3.236972900390625 0.1874999999999999 Q 3.197972900390625 0.1874999999999999 3.171722900390625 0.16349999999999998 Q 3.145472900390625 0.13949999999999996 3.145472900390625 0.10049999999999992 Q 3.145472900390625 0.06149999999999989 3.171722900390625 0.038249999999999895 Q 3.197972900390625 0.014999999999999902 3.236972900390625 0.014999999999999902 L 3.850472900390625 0.014999999999999902 M 4.20448828125 0.014999999999999902 L 4.70698828125 0.014999999999999902 Q 4.74598828125 0.014999999999999902 4.77223828125 0.03974999999999995 Q 4.79848828125 0.0645 4.79848828125 0.10349999999999993 Q 4.79848828125 0.1409999999999999 4.77223828125 0.1642499999999999 Q 4.74598828125 0.1874999999999999 4.70698828125 0.1874999999999999 L 4.28698828125 0.1874999999999999 L 4.30048828125 0.16199999999999992 L 4.30048828125 0.4544999999999999 L 4.28848828125 0.4424999999999999 L 4.63948828125 0.4424999999999999 Q 4.67848828125 0.4424999999999999 4.70473828125 0.46724999999999994 Q 4.73098828125 0.4919999999999999 4.73098828125 0.5309999999999999 Q 4.73098828125 0.5685 4.70473828125 0.59175 Q 4.67848828125 0.615 4.63948828125 0.615 L 4.29298828125 0.615 L 4.30048828125 0.603 L 4.30048828125 0.9059999999999999 L 4.28848828125 0.8925 L 4.70698828125 0.8925 Q 4.74598828125 0.8925 4.77223828125 0.91875 Q 4.79848828125 0.945 4.79848828125 0.9794999999999999 Q 4.79848828125 1.017 4.77223828125 1.041 Q 4.74598828125 1.065 4.70698828125 1.065 L 4.20448828125 1.065 Q 4.16548828125 1.065 4.13923828125 1.0387499999999998 Q 4.11298828125 1.0125 4.11298828125 0.9734999999999999 L 4.11298828125 0.10649999999999993 Q 4.11298828125 0.0674999999999999 4.13923828125 0.04125000000000001 Q 4.16548828125 0.014999999999999902 4.20448828125 0.014999999999999902 M 5.0790205078125 1.065 Q 5.0370205078125 1.065 5.0040205078125 1.0387499999999998 Q 4.9710205078125 1.0125 4.9710205078125 0.9734999999999999 L 4.9710205078125 0.10649999999999993 Q 4.9710205078125 0.0674999999999999 4.9972705078125 0.04125000000000001 Q 5.0235205078125 0.014999999999999902 5.0625205078125 0.014999999999999902 L 5.4945205078125 0.014999999999999902 Q 5.5725205078125 0.014999999999999902 5.6407705078125 0.05624999999999991 Q 5.7090205078125 0.09749999999999992 5.7510205078125 0.1702499999999999 Q 5.7930205078125 0.24299999999999988 5.7930205078125 0.3374999999999999 Q 5.7930205078125 0.39449999999999996 5.7697705078125 0.4484999999999999 Q 5.7465205078125 0.5025 5.7067705078125 0.5459999999999999 Q 5.6670205078125 0.5894999999999999 5.6175205078125 0.6134999999999999 L 5.6190205078125 0.579 Q 5.6610205078125 0.6014999999999999 5.6887705078125 0.63225 Q 5.7165205078125 0.6629999999999999 5.7322705078125 0.6982499999999999 Q 5.7480205078125 0.7334999999999999 5.7510205078125 0.774 Q 5.7570205078125 0.8114999999999999 5.7592705078125 0.84 Q 5.7615205078125005 0.8684999999999999 5.7682705078125 0.8879999999999999 Q 5.7750205078125 0.9075 5.7945205078125 0.9179999999999999 Q 5.8275205078125 0.9375 5.8357705078125 0.97425 Q 5.8440205078125 1.011 5.8185205078125 1.0394999999999999 Q 5.8020205078125 1.059 5.7765205078125 1.06425 Q 5.7510205078125 1.0695 5.7255205078125 1.06425 Q 5.7000205078125 1.059 5.6835205078125 1.05 Q 5.6580205078125 1.035 5.6325205078125 1.00575 Q 5.6070205078125 0.9764999999999999 5.5912705078125 0.9269999999999999 Q 5.5755205078125 0.8775 5.5755205078125 0.7994999999999999 Q 5.5755205078125 0.774 5.5665205078125 0.7522499999999999 Q 5.5575205078125 0.7304999999999999 5.5410205078125 0.71475 Q 5.5245205078125 0.699 5.4990205078125 0.69075 Q 5.4735205078125 0.6824999999999999 5.4390205078125 0.6824999999999999 L 5.1360205078125 0.6824999999999999 L 5.1585205078125 0.6479999999999999 L 5.1585205078125 0.9734999999999999 Q 5.1585205078125 1.0125 5.1375205078125 1.0387499999999998 Q 5.1165205078125 1.065 5.0790205078125 1.065 M 5.1375205078125 0.5279999999999999 L 5.4870205078125 0.5279999999999999 Q 5.5140205078125 0.5279999999999999 5.5395205078125 0.50325 Q 5.5650205078125 0.4784999999999999 5.5815205078125 0.43574999999999997 Q 5.5980205078125 0.3929999999999999 5.5980205078125 0.34199999999999997 Q 5.5980205078125 0.2759999999999999 5.5627705078125 0.2317499999999999 Q 5.5275205078125005 0.1874999999999999 5.4870205078125 0.1874999999999999 L 5.1405205078125 0.1874999999999999 L 5.1585205078125 0.13949999999999996 L 5.1585205078125 0.564 L 5.1375205078125 0.5279999999999999 M 6.3870380859375 0.25049999999999994 L 6.0630380859375 1.0125 Q 6.0525380859375 1.041 6.0307880859375 1.0567499999999999 Q 6.0090380859375 1.0725 5.9835380859375 1.0725 Q 5.9430380859375 1.0725 5.9235380859375 1.05 Q 5.9040380859375 1.0274999999999999 5.9040380859375 0.9944999999999999 Q 5.9040380859375 0.981 5.9085380859375 0.966 L 6.2820380859375 0.06899999999999995 Q 6.2940380859375 0.038999999999999924 6.3187880859375 0.022499999999999964 Q 6.3435380859375 0.006000000000000005 6.3720380859375 0.008999999999999897 Q 6.3990380859375 0.008999999999999897 6.4222880859375 0.024749999999999828 Q 6.4455380859375 0.04049999999999998 6.4560380859375 0.06899999999999995 L 6.8250380859375 0.948 Q 6.8325380859375 0.9674999999999999 6.8325380859375 0.984 Q 6.8325380859375 1.0245 6.8062880859375 1.0485 Q 6.7800380859375 1.0725 6.7485380859375 1.0725 Q 6.7215380859375 1.0725 6.6997880859375 1.056 Q 6.6780380859375 1.0394999999999999 6.6660380859375 1.011 L 6.3435380859375 0.25949999999999995 L 6.3870380859375 0.25049999999999994 M 6.1095380859375 0.8294999999999999 L 6.1920380859375 0.6569999999999999 L 6.5970380859375 0.6569999999999999 L 6.6255380859375 0.8294999999999999 L 6.1095380859375 0.8294999999999999" fill="#ffffff" fill-rule="nonzero"></path></g><g><path d=" M 0.096 1.4535 L 0.363 1.4535 Q 0.37575000000000003 1.4535 0.38475 1.46175 Q 0.39375 1.4700000000000002 0.39375 1.4827500000000002 Q 0.39375 1.4955000000000003 0.38475 1.5033750000000001 Q 0.37575000000000003 1.5112500000000002 0.363 1.5112500000000002 L 0.1215 1.5112500000000002 L 0.12825 1.4985000000000002 L 0.12825 1.68825 L 0.12075 1.6800000000000002 L 0.32925 1.6800000000000002 Q 0.342 1.6800000000000002 0.35100000000000003 1.68825 Q 0.36 1.6965000000000001 0.36 1.7092500000000002 Q 0.36 1.7220000000000002 0.35100000000000003 1.729875 Q 0.342 1.7377500000000001 0.32925 1.7377500000000001 L 0.123 1.7377500000000001 L 0.12825 1.731 L 0.12825 1.9252500000000001 L 0.12375 1.9200000000000002 L 0.363 1.9200000000000002 Q 0.37575000000000003 1.9200000000000002 0.38475 1.929 Q 0.39375 1.9380000000000002 0.39375 1.9492500000000001 Q 0.39375 1.9620000000000002 0.38475 1.97025 Q 0.37575000000000003 1.9785000000000001 0.363 1.9785000000000001 L 0.096 1.9785000000000001 Q 0.08325 1.9785000000000001 0.074625 1.9695000000000003 Q 0.066 1.9605000000000001 0.066 1.94775 L 0.066 1.4835000000000003 Q 0.066 1.4707500000000002 0.074625 1.4621250000000001 Q 0.08325 1.4535 0.096 1.4535 M 0.6682554931640625 1.58475 Q 0.7192554931640625 1.58475 0.7511304931640626 1.6106250000000002 Q 0.7830054931640624 1.6365 0.7935054931640625 1.68375 L 0.7822554931640625 1.68375 L 0.7875054931640625 1.6702500000000002 Q 0.7965054931640625 1.64925 0.8182554931640624 1.62975 Q 0.8400054931640626 1.6102500000000002 0.8685054931640626 1.5975000000000001 Q 0.8970054931640625 1.58475 0.9277554931640625 1.58475 Q 0.9772554931640625 1.58475 1.0057554931640627 1.606125 Q 1.0342554931640624 1.6275000000000002 1.0466304931640624 1.6631250000000002 Q 1.0590054931640625 1.6987500000000002 1.0590054931640625 1.743 L 1.0590054931640625 1.94775 Q 1.0590054931640625 1.9605000000000001 1.0503804931640626 1.9695000000000003 Q 1.0417554931640625 1.9785000000000001 1.0290054931640626 1.9785000000000001 Q 1.0155054931640626 1.9785000000000001 1.0072554931640625 1.9695000000000003 Q 0.9990054931640625 1.9605000000000001 0.9990054931640625 1.94775 L 0.9990054931640625 1.7445000000000002 Q 0.9990054931640625 1.7152500000000002 0.9903804931640625 1.6916250000000002 Q 0.9817554931640625 1.6680000000000001 0.9626304931640625 1.654125 Q 0.9435054931640625 1.6402500000000002 0.9105054931640625 1.6402500000000002 Q 0.8797554931640625 1.6402500000000002 0.8542554931640625 1.654125 Q 0.8287554931640625 1.6680000000000001 0.8137554931640625 1.6916250000000002 Q 0.7987554931640626 1.7152500000000002 0.7987554931640626 1.7445000000000002 L 0.7987554931640626 1.94775 Q 0.7987554931640626 1.9605000000000001 0.7905054931640625 1.9695000000000003 Q 0.7822554931640625 1.9785000000000001 0.7687554931640626 1.9785000000000001 Q 0.7560054931640625 1.9785000000000001 0.7473804931640625 1.9695000000000003 Q 0.7387554931640625 1.9605000000000001 0.7387554931640625 1.94775 L 0.7387554931640625 1.74225 Q 0.7387554931640625 1.71375 0.7308804931640625 1.6908750000000001 Q 0.7230054931640625 1.6680000000000001 0.7042554931640626 1.654125 Q 0.6855054931640625 1.6402500000000002 0.6525054931640625 1.6402500000000002 Q 0.6225054931640626 1.6402500000000002 0.5977554931640625 1.654125 Q 0.5730054931640625 1.6680000000000001 0.5580054931640626 1.6908750000000001 Q 0.5430054931640625 1.71375 0.5430054931640625 1.74225 L 0.5430054931640625 1.94775 Q 0.5430054931640625 1.9605000000000001 0.5343804931640626 1.9695000000000003 Q 0.5257554931640624 1.9785000000000001 0.5130054931640625 1.9785000000000001 Q 0.5002554931640625 1.9785000000000001 0.4916304931640625 1.9695000000000003 Q 0.4830054931640625 1.9605000000000001 0.4830054931640625 1.94775 L 0.4830054931640625 1.6207500000000001 Q 0.4830054931640625 1.608 0.4916304931640625 1.5993750000000002 Q 0.5002554931640625 1.59075 0.5130054931640625 1.59075 Q 0.5265054931640625 1.59075 0.5347554931640625 1.5993750000000002 Q 0.5430054931640625 1.608 0.5430054931640625 1.6207500000000001 L 0.5430054931640625 1.67775 L 0.5265054931640625 1.69575 Q 0.5295054931640625 1.67625 0.5418804931640625 1.6567500000000002 Q 0.5542554931640625 1.63725 0.5737554931640625 1.6207500000000001 Q 0.5932554931640626 1.6042500000000002 0.6172554931640625 1.5945 Q 0.6412554931640625 1.58475 0.6682554931640625 1.58475 M 1.3612672119140625 1.58475 Q 1.4122672119140625 1.58475 1.4527672119140624 1.6102500000000002 Q 1.4932672119140626 1.6357500000000003 1.5168922119140624 1.6807500000000002 Q 1.5405172119140624 1.7257500000000001 1.5405172119140624 1.7842500000000001 Q 1.5405172119140624 1.842 1.5168922119140624 1.8873750000000002 Q 1.4932672119140626 1.9327500000000002 1.4531422119140625 1.958625 Q 1.4130172119140625 1.9845000000000002 1.3627672119140626 1.9845000000000002 Q 1.3350172119140624 1.9845000000000002 1.3106422119140624 1.975875 Q 1.2862672119140626 1.9672500000000002 1.2663922119140625 1.953375 Q 1.2465172119140626 1.9395000000000002 1.2330172119140625 1.9218750000000002 Q 1.2195172119140625 1.9042500000000002 1.2135172119140625 1.8870000000000002 L 1.2300172119140624 1.8765 L 1.2300172119140624 2.09775 Q 1.2300172119140624 2.1105 1.2217672119140626 2.1195000000000004 Q 1.2135172119140625 2.1285000000000003 1.2000172119140624 2.1285000000000003 Q 1.1872672119140626 2.1285000000000003 1.1786422119140625 2.119875 Q 1.1700172119140626 2.11125 1.1700172119140626 2.09775 L 1.1700172119140626 1.6185 Q 1.1700172119140626 1.60575 1.1786422119140625 1.5971250000000001 Q 1.1872672119140626 1.5885000000000002 1.2000172119140624 1.5885000000000002 Q 1.2135172119140625 1.5885000000000002 1.2217672119140626 1.5971250000000001 Q 1.2300172119140624 1.60575 1.2300172119140624 1.6185 L 1.2300172119140624 1.6852500000000001 L 1.2187672119140625 1.6792500000000001 Q 1.2240172119140624 1.6605 1.2371422119140625 1.64325 Q 1.2502672119140625 1.6260000000000001 1.2693922119140626 1.612875 Q 1.2885172119140624 1.5997500000000002 1.3121422119140624 1.5922500000000002 Q 1.3357672119140624 1.58475 1.3612672119140625 1.58475 M 1.3545172119140625 1.6402500000000002 Q 1.3170172119140626 1.6402500000000002 1.2881422119140624 1.6590000000000003 Q 1.2592672119140624 1.67775 1.2431422119140625 1.7100000000000002 Q 1.2270172119140625 1.74225 1.2270172119140625 1.7842500000000001 Q 1.2270172119140625 1.8255000000000001 1.2431422119140625 1.8585000000000003 Q 1.2592672119140624 1.8915000000000002 1.2881422119140624 1.9102500000000002 Q 1.3170172119140626 1.929 1.3545172119140625 1.929 Q 1.3920172119140626 1.929 1.4205172119140625 1.9102500000000002 Q 1.4490172119140625 1.8915000000000002 1.4655172119140625 1.8585000000000003 Q 1.4820172119140624 1.8255000000000001 1.4820172119140624 1.7842500000000001 Q 1.4820172119140624 1.74225 1.4655172119140625 1.7100000000000002 Q 1.4490172119140625 1.67775 1.4205172119140625 1.6590000000000003 Q 1.3920172119140626 1.6402500000000002 1.3545172119140625 1.6402500000000002 M 1.9912738037109374 1.7835 Q 1.9912738037109374 1.842 1.9657738037109376 1.88775 Q 1.9402738037109375 1.9335000000000002 1.8963988037109374 1.95975 Q 1.8525238037109375 1.9860000000000002 1.7970238037109376 1.9860000000000002 Q 1.7422738037109375 1.9860000000000002 1.6983988037109374 1.95975 Q 1.6545238037109375 1.9335000000000002 1.6286488037109375 1.88775 Q 1.6027738037109376 1.842 1.6027738037109376 1.7835 Q 1.6027738037109376 1.725 1.6286488037109375 1.6792500000000001 Q 1.6545238037109375 1.6335000000000002 1.6983988037109374 1.60725 Q 1.7422738037109375 1.5810000000000002 1.7970238037109376 1.5810000000000002 Q 1.8525238037109375 1.5810000000000002 1.8963988037109374 1.60725 Q 1.9402738037109375 1.6335000000000002 1.9657738037109376 1.6792500000000001 Q 1.9912738037109374 1.725 1.9912738037109374 1.7835 M 1.9312738037109374 1.7835 Q 1.9312738037109374 1.7400000000000002 1.9136488037109376 1.707 Q 1.8960238037109374 1.6740000000000002 1.8656488037109376 1.65525 Q 1.8352738037109375 1.6365 1.7970238037109376 1.6365 Q 1.7595238037109375 1.6365 1.7287738037109375 1.65525 Q 1.6980238037109374 1.6740000000000002 1.6803988037109374 1.707 Q 1.6627738037109374 1.7400000000000002 1.6627738037109374 1.7835 Q 1.6627738037109374 1.8262500000000002 1.6803988037109374 1.85925 Q 1.6980238037109374 1.8922500000000002 1.7287738037109375 1.911375 Q 1.7595238037109375 1.9305 1.7970238037109376 1.9305 Q 1.8352738037109375 1.9305 1.8656488037109376 1.911375 Q 1.8960238037109374 1.8922500000000002 1.9136488037109376 1.85925 Q 1.9312738037109374 1.8262500000000002 1.9312738037109374 1.7835 M 2.53576611328125 1.584 Q 2.54776611328125 1.584 2.55639111328125 1.5922500000000002 Q 2.56501611328125 1.6005000000000003 2.56501611328125 1.614 Q 2.56501611328125 1.6170000000000002 2.56464111328125 1.6203750000000001 Q 2.56426611328125 1.6237500000000002 2.56276611328125 1.6267500000000001 L 2.44726611328125 1.959 Q 2.44351611328125 1.9687500000000002 2.43489111328125 1.9740000000000002 Q 2.42626611328125 1.9792500000000002 2.41651611328125 1.9785000000000001 Q 2.39926611328125 1.9777500000000001 2.39026611328125 1.959 L 2.29576611328125 1.7220000000000002 L 2.3107661132812503 1.72425 L 2.22526611328125 1.959 Q 2.21701611328125 1.9777500000000001 2.19901611328125 1.9785000000000001 Q 2.18926611328125 1.9792500000000002 2.18026611328125 1.9740000000000002 Q 2.17126611328125 1.9687500000000002 2.16826611328125 1.959 L 2.05051611328125 1.6267500000000001 Q 2.04826611328125 1.62 2.04826611328125 1.614 Q 2.04826611328125 1.602 2.05651611328125 1.5930000000000002 Q 2.06476611328125 1.584 2.07901611328125 1.584 Q 2.08801611328125 1.584 2.09551611328125 1.5885000000000002 Q 2.10301611328125 1.5930000000000002 2.10601611328125 1.6027500000000001 L 2.20726611328125 1.8982500000000002 L 2.19151611328125 1.8975000000000002 L 2.27926611328125 1.6725 Q 2.2867661132812502 1.65375 2.30701611328125 1.65375 Q 2.31751611328125 1.65375 2.32389111328125 1.6586250000000002 Q 2.33026611328125 1.6635000000000002 2.33326611328125 1.6725 L 2.42476611328125 1.8975000000000002 L 2.40601611328125 1.8990000000000002 L 2.50726611328125 1.6027500000000001 Q 2.51401611328125 1.584 2.53576611328125 1.584 M 2.8215303955078124 1.9860000000000002 Q 2.7615303955078123 1.9860000000000002 2.7165303955078124 1.9605000000000001 Q 2.6715303955078125 1.935 2.6467803955078124 1.8903750000000001 Q 2.6220303955078124 1.8457500000000002 2.6220303955078124 1.7872500000000002 Q 2.6220303955078124 1.7220000000000002 2.6479053955078125 1.675875 Q 2.6737803955078125 1.62975 2.7150303955078123 1.6053750000000002 Q 2.7562803955078126 1.5810000000000002 2.8027803955078125 1.5810000000000002 Q 2.8380303955078126 1.5810000000000002 2.8699053955078124 1.5937500000000002 Q 2.9017803955078127 1.6065 2.9269053955078124 1.630875 Q 2.9520303955078124 1.65525 2.9670303955078126 1.689375 Q 2.9820303955078127 1.7235 2.9827803955078123 1.7655 Q 2.9820303955078127 1.7775 2.9730303955078123 1.7857500000000002 Q 2.9640303955078124 1.794 2.9520303955078124 1.794 L 2.6557803955078123 1.794 L 2.6422803955078127 1.74225 L 2.9310303955078125 1.74225 L 2.9190303955078125 1.7527500000000003 L 2.9190303955078125 1.73625 Q 2.9167803955078124 1.7055000000000002 2.8991553955078126 1.683375 Q 2.8815303955078124 1.6612500000000001 2.8560303955078123 1.64925 Q 2.8305303955078127 1.63725 2.8027803955078125 1.63725 Q 2.7802803955078126 1.63725 2.7581553955078126 1.6451250000000002 Q 2.7360303955078127 1.653 2.7184053955078125 1.6706250000000002 Q 2.7007803955078127 1.68825 2.6902803955078127 1.7160000000000002 Q 2.6797803955078123 1.7437500000000001 2.6797803955078123 1.78275 Q 2.6797803955078123 1.8262500000000002 2.6974053955078126 1.85925 Q 2.7150303955078123 1.8922500000000002 2.7465303955078126 1.911375 Q 2.7780303955078125 1.9305 2.8192803955078123 1.9305 Q 2.8462803955078124 1.9305 2.8657803955078123 1.92375 Q 2.8852803955078126 1.9170000000000003 2.8991553955078126 1.906875 Q 2.9130303955078123 1.8967500000000002 2.9227803955078127 1.8862500000000002 Q 2.9325303955078126 1.8795000000000002 2.9422803955078125 1.8795000000000002 Q 2.9527803955078125 1.8795000000000002 2.9602803955078123 1.8870000000000002 Q 2.9677803955078126 1.8945 2.9677803955078126 1.9050000000000002 Q 2.9677803955078126 1.91775 2.9557803955078126 1.9275000000000002 Q 2.9340303955078126 1.9507500000000002 2.8984053955078126 1.9683750000000002 Q 2.8627803955078126 1.9860000000000002 2.8215303955078124 1.9860000000000002 M 3.0990498046875 1.9785000000000001 Q 3.0862998046875 1.9785000000000001 3.0776748046875 1.9695000000000003 Q 3.0690498046875 1.9605000000000001 3.0690498046875 1.94775 L 3.0690498046875 1.6207500000000001 Q 3.0690498046875 1.608 3.0776748046875 1.5993750000000002 Q 3.0862998046875 1.59075 3.0990498046875 1.59075 Q 3.1125498046875 1.59075 3.1207998046875 1.5993750000000002 Q 3.1290498046875 1.608 3.1290498046875 1.6207500000000001 L 3.1290498046875 1.7197500000000001 L 3.1200498046875 1.7040000000000002 Q 3.1245498046875 1.6807500000000002 3.1361748046875 1.6586250000000002 Q 3.1477998046875 1.6365 3.1657998046875 1.618875 Q 3.1837998046875002 1.60125 3.2070498046875002 1.5911250000000001 Q 3.2302998046875 1.5810000000000002 3.2580498046875 1.5810000000000002 Q 3.2745498046875 1.5810000000000002 3.2884248046874998 1.5888750000000003 Q 3.3022998046875 1.5967500000000001 3.3022998046875 1.6110000000000002 Q 3.3022998046875 1.6267500000000001 3.2940498046875 1.6342500000000002 Q 3.2857998046875 1.64175 3.2752998046875 1.64175 Q 3.2655498046875 1.64175 3.2565498046875 1.637625 Q 3.2475498046875 1.6335000000000002 3.2340498046875 1.6335000000000002 Q 3.2152998046875 1.6335000000000002 3.1969248046875 1.6436250000000001 Q 3.1785498046875 1.65375 3.1631748046875 1.6725 Q 3.1477998046875 1.6912500000000001 3.1384248046875 1.7148750000000001 Q 3.1290498046875 1.7385000000000002 3.1290498046875 1.7655 L 3.1290498046875 1.94775 Q 3.1290498046875 1.9605000000000001 3.1204248046875 1.9695000000000003 Q 3.1117998046875 1.9785000000000001 3.0990498046875 1.9785000000000001 M 3.427550537109375 1.94775 Q 3.427550537109375 1.9605000000000001 3.418925537109375 1.9695000000000003 Q 3.410300537109375 1.9785000000000001 3.397550537109375 1.9785000000000001 Q 3.384050537109375 1.9785000000000001 3.375800537109375 1.9695000000000003 Q 3.367550537109375 1.9605000000000001 3.367550537109375 1.94775 L 3.367550537109375 1.6147500000000001 Q 3.367550537109375 1.602 3.376175537109375 1.5933750000000002 Q 3.384800537109375 1.58475 3.397550537109375 1.58475 Q 3.410300537109375 1.58475 3.418925537109375 1.5933750000000002 Q 3.427550537109375 1.602 3.427550537109375 1.6147500000000001 L 3.427550537109375 1.94775 M 3.397550537109375 1.5345000000000002 Q 3.378800537109375 1.5345000000000002 3.369800537109375 1.5270000000000001 Q 3.360800537109375 1.5195 3.360800537109375 1.5037500000000001 L 3.360800537109375 1.4932500000000002 Q 3.360800537109375 1.4775 3.370550537109375 1.4700000000000002 Q 3.380300537109375 1.4625000000000001 3.398300537109375 1.4625000000000001 Q 3.416300537109375 1.4625000000000001 3.425300537109375 1.4700000000000002 Q 3.434300537109375 1.4775 3.434300537109375 1.4932500000000002 L 3.434300537109375 1.5037500000000001 Q 3.434300537109375 1.5195 3.424925537109375 1.5270000000000001 Q 3.415550537109375 1.5345000000000002 3.397550537109375 1.5345000000000002 M 3.7283067626953126 1.5810000000000002 Q 3.7793067626953123 1.5810000000000002 3.8085567626953125 1.602 Q 3.8378067626953127 1.6230000000000002 3.8501817626953123 1.6582500000000002 Q 3.8625567626953123 1.6935000000000002 3.8625567626953123 1.737 L 3.8625567626953123 1.94775 Q 3.8625567626953123 1.9605000000000001 3.8539317626953125 1.9695000000000003 Q 3.8453067626953126 1.9785000000000001 3.8325567626953125 1.9785000000000001 Q 3.8198067626953125 1.9785000000000001 3.8111817626953126 1.9695000000000003 Q 3.8025567626953123 1.9605000000000001 3.8025567626953123 1.94775 L 3.8025567626953123 1.7385000000000002 Q 3.8025567626953123 1.7100000000000002 3.7939317626953124 1.6871250000000002 Q 3.7853067626953125 1.66425 3.7654317626953127 1.6503750000000001 Q 3.7455567626953123 1.6365 3.7110567626953124 1.6365 Q 3.6795567626953125 1.6365 3.6533067626953124 1.6503750000000001 Q 3.6270567626953123 1.66425 3.6113067626953126 1.6871250000000002 Q 3.5955567626953124 1.7100000000000002 3.5955567626953124 1.7385000000000002 L 3.5955567626953124 1.94775 Q 3.5955567626953124 1.9605000000000001 3.5869317626953126 1.9695000000000003 Q 3.5783067626953127 1.9785000000000001 3.5655567626953126 1.9785000000000001 Q 3.5528067626953126 1.9785000000000001 3.5441817626953127 1.9695000000000003 Q 3.5355567626953124 1.9605000000000001 3.5355567626953124 1.94775 L 3.5355567626953124 1.6207500000000001 Q 3.5355567626953124 1.608 3.5441817626953127 1.5993750000000002 Q 3.5528067626953126 1.59075 3.5655567626953126 1.59075 Q 3.5790567626953127 1.59075 3.5873067626953126 1.5993750000000002 Q 3.5955567626953124 1.608 3.5955567626953124 1.6207500000000001 L 3.5955567626953124 1.6740000000000002 L 3.5805567626953123 1.6905000000000001 Q 3.5843067626953125 1.6710000000000003 3.5978067626953125 1.6511250000000002 Q 3.6113067626953126 1.63125 3.6315567626953125 1.6155000000000002 Q 3.6518067626953123 1.5997500000000002 3.6765567626953124 1.590375 Q 3.7013067626953124 1.5810000000000002 3.7283067626953126 1.5810000000000002 M 4.132545043945313 1.5810000000000002 Q 4.165545043945312 1.5810000000000002 4.193295043945312 1.5918750000000002 Q 4.221045043945312 1.6027500000000001 4.241670043945312 1.62 Q 4.262295043945312 1.63725 4.273920043945313 1.6560000000000001 Q 4.285545043945312 1.6747500000000002 4.285545043945312 1.6912500000000001 L 4.2705450439453125 1.6822500000000002 L 4.2705450439453125 1.6170000000000002 Q 4.2705450439453125 1.6042500000000002 4.279170043945313 1.595625 Q 4.287795043945312 1.5870000000000002 4.300545043945313 1.5870000000000002 Q 4.314045043945312 1.5870000000000002 4.322295043945313 1.595625 Q 4.330545043945312 1.6042500000000002 4.330545043945312 1.6170000000000002 L 4.330545043945312 1.9455000000000002 Q 4.330545043945312 2.007 4.304670043945313 2.0475000000000003 Q 4.278795043945313 2.088 4.235295043945312 2.10825 Q 4.191795043945312 2.1285000000000003 4.138545043945313 2.1285000000000003 Q 4.116045043945313 2.1285000000000003 4.088670043945313 2.1225 Q 4.061295043945313 2.1165000000000003 4.040295043945313 2.107875 Q 4.019295043945313 2.09925 4.014045043945313 2.09025 Q 4.002795043945312 2.0827500000000003 4.000170043945312 2.073375 Q 3.9975450439453124 2.064 4.002795043945312 2.05575 Q 4.010295043945312 2.0452500000000002 4.020795043945313 2.0452500000000002 Q 4.031295043945312 2.0452500000000002 4.047795043945312 2.052 Q 4.055295043945312 2.05425 4.069545043945313 2.0595000000000003 Q 4.083795043945313 2.06475 4.102545043945312 2.0688750000000002 Q 4.121295043945312 2.073 4.139295043945313 2.073 Q 4.203045043945313 2.073 4.236795043945312 2.039625 Q 4.2705450439453125 2.00625 4.2705450439453125 1.9515000000000002 L 4.2705450439453125 1.8817500000000003 L 4.278795043945313 1.8855000000000002 Q 4.274295043945313 1.9065 4.260795043945312 1.9245 Q 4.2472950439453125 1.9425000000000001 4.227420043945313 1.9563750000000002 Q 4.207545043945313 1.97025 4.183170043945313 1.9781250000000001 Q 4.158795043945313 1.9860000000000002 4.134045043945313 1.9860000000000002 Q 4.0815450439453125 1.9860000000000002 4.039920043945313 1.95975 Q 3.9982950439453124 1.9335000000000002 3.9739200439453124 1.88775 Q 3.9495450439453124 1.842 3.9495450439453124 1.7835 Q 3.9495450439453124 1.72425 3.9739200439453124 1.6785 Q 3.9982950439453124 1.6327500000000001 4.039545043945313 1.606875 Q 4.0807950439453125 1.5810000000000002 4.132545043945313 1.5810000000000002 M 4.140795043945312 1.6365 Q 4.101795043945312 1.6365 4.071795043945312 1.6556250000000001 Q 4.041795043945313 1.6747500000000002 4.024545043945312 1.70775 Q 4.007295043945312 1.7407500000000002 4.007295043945312 1.7835 Q 4.007295043945312 1.82475 4.024545043945312 1.8581250000000002 Q 4.041795043945313 1.8915000000000002 4.071795043945312 1.911 Q 4.101795043945312 1.9305 4.140795043945312 1.9305 Q 4.179795043945313 1.9305 4.209795043945313 1.911375 Q 4.239795043945312 1.8922500000000002 4.257045043945313 1.85925 Q 4.274295043945313 1.8262500000000002 4.274295043945313 1.7835 Q 4.274295043945313 1.7400000000000002 4.257045043945313 1.707 Q 4.239795043945312 1.6740000000000002 4.209795043945313 1.65525 Q 4.179795043945313 1.6365 4.140795043945312 1.6365 M 4.875830932617188 1.4535 Q 4.930580932617188 1.4535 4.972205932617188 1.4741250000000001 Q 5.0138309326171875 1.4947500000000002 5.041580932617188 1.5315 Q 5.069330932617188 1.5682500000000001 5.0832059326171875 1.6158750000000002 Q 5.097080932617187 1.6635000000000002 5.097080932617187 1.7160000000000002 Q 5.097080932617187 1.7880000000000003 5.072330932617188 1.847625 Q 5.047580932617188 1.9072500000000001 4.998830932617188 1.9428750000000001 Q 4.950080932617188 1.9785000000000001 4.875830932617188 1.9785000000000001 L 4.688330932617188 1.9785000000000001 Q 4.675580932617187 1.9785000000000001 4.666955932617188 1.9695000000000003 Q 4.658330932617187 1.9605000000000001 4.658330932617187 1.94775 L 4.658330932617187 1.4835000000000003 Q 4.658330932617187 1.4707500000000002 4.666955932617188 1.4621250000000001 Q 4.675580932617187 1.4535 4.688330932617188 1.4535 L 4.875830932617188 1.4535 M 4.868330932617187 1.9200000000000002 Q 4.926080932617188 1.9200000000000002 4.962455932617187 1.8922500000000002 Q 4.998830932617188 1.8645 5.015705932617188 1.818 Q 5.032580932617187 1.7715 5.032580932617187 1.7160000000000002 Q 5.032580932617187 1.6755000000000002 5.023205932617188 1.6383750000000001 Q 5.0138309326171875 1.60125 4.993955932617188 1.57275 Q 4.974080932617188 1.5442500000000001 4.9429559326171875 1.5277500000000002 Q 4.911830932617187 1.5112500000000002 4.868330932617187 1.5112500000000002 L 4.714580932617188 1.5112500000000002 L 4.720580932617188 1.5052500000000002 L 4.720580932617188 1.9275000000000002 L 4.716080932617188 1.9200000000000002 L 4.868330932617187 1.9200000000000002 M 5.216344116210937 1.9785000000000001 Q 5.203594116210938 1.9785000000000001 5.194969116210937 1.9695000000000003 Q 5.186344116210938 1.9605000000000001 5.186344116210938 1.94775 L 5.186344116210938 1.6207500000000001 Q 5.186344116210938 1.608 5.194969116210937 1.5993750000000002 Q 5.203594116210938 1.59075 5.216344116210937 1.59075 Q 5.229844116210938 1.59075 5.238094116210937 1.5993750000000002 Q 5.246344116210937 1.608 5.246344116210937 1.6207500000000001 L 5.246344116210937 1.7197500000000001 L 5.237344116210937 1.7040000000000002 Q 5.241844116210937 1.6807500000000002 5.253469116210938 1.6586250000000002 Q 5.265094116210937 1.6365 5.283094116210938 1.618875 Q 5.301094116210938 1.60125 5.324344116210938 1.5911250000000001 Q 5.347594116210938 1.5810000000000002 5.375344116210938 1.5810000000000002 Q 5.391844116210938 1.5810000000000002 5.405719116210937 1.5888750000000003 Q 5.419594116210938 1.5967500000000001 5.419594116210938 1.6110000000000002 Q 5.419594116210938 1.6267500000000001 5.4113441162109375 1.6342500000000002 Q 5.403094116210937 1.64175 5.392594116210938 1.64175 Q 5.382844116210937 1.64175 5.373844116210938 1.637625 Q 5.3648441162109375 1.6335000000000002 5.351344116210938 1.6335000000000002 Q 5.332594116210937 1.6335000000000002 5.314219116210937 1.6436250000000001 Q 5.2958441162109375 1.65375 5.280469116210938 1.6725 Q 5.265094116210937 1.6912500000000001 5.255719116210938 1.7148750000000001 Q 5.246344116210937 1.7385000000000002 5.246344116210937 1.7655 L 5.246344116210937 1.94775 Q 5.246344116210937 1.9605000000000001 5.237719116210937 1.9695000000000003 Q 5.229094116210938 1.9785000000000001 5.216344116210937 1.9785000000000001 M 5.646115356445312 1.9860000000000002 Q 5.586115356445313 1.9860000000000002 5.541115356445313 1.9605000000000001 Q 5.496115356445313 1.935 5.471365356445313 1.8903750000000001 Q 5.446615356445313 1.8457500000000002 5.446615356445313 1.7872500000000002 Q 5.446615356445313 1.7220000000000002 5.472490356445313 1.675875 Q 5.498365356445312 1.62975 5.539615356445313 1.6053750000000002 Q 5.580865356445313 1.5810000000000002 5.6273653564453125 1.5810000000000002 Q 5.662615356445312 1.5810000000000002 5.694490356445312 1.5937500000000002 Q 5.726365356445313 1.6065 5.751490356445313 1.630875 Q 5.776615356445313 1.65525 5.791615356445313 1.689375 Q 5.806615356445312 1.7235 5.807365356445312 1.7655 Q 5.806615356445312 1.7775 5.797615356445313 1.7857500000000002 Q 5.788615356445312 1.794 5.776615356445313 1.794 L 5.480365356445312 1.794 L 5.466865356445313 1.74225 L 5.755615356445313 1.74225 L 5.7436153564453125 1.7527500000000003 L 5.7436153564453125 1.73625 Q 5.741365356445312 1.7055000000000002 5.723740356445313 1.683375 Q 5.706115356445313 1.6612500000000001 5.680615356445313 1.64925 Q 5.655115356445313 1.63725 5.6273653564453125 1.63725 Q 5.604865356445313 1.63725 5.582740356445313 1.6451250000000002 Q 5.560615356445313 1.653 5.542990356445313 1.6706250000000002 Q 5.525365356445312 1.68825 5.514865356445313 1.7160000000000002 Q 5.504365356445312 1.7437500000000001 5.504365356445312 1.78275 Q 5.504365356445312 1.8262500000000002 5.521990356445312 1.85925 Q 5.539615356445313 1.8922500000000002 5.571115356445312 1.911375 Q 5.6026153564453125 1.9305 5.643865356445312 1.9305 Q 5.670865356445312 1.9305 5.690365356445312 1.92375 Q 5.709865356445312 1.9170000000000003 5.723740356445313 1.906875 Q 5.737615356445312 1.8967500000000002 5.747365356445313 1.8862500000000002 Q 5.757115356445312 1.8795000000000002 5.7668653564453125 1.8795000000000002 Q 5.777365356445313 1.8795000000000002 5.784865356445312 1.8870000000000002 Q 5.792365356445313 1.8945 5.792365356445313 1.9050000000000002 Q 5.792365356445313 1.91775 5.780365356445312 1.9275000000000002 Q 5.758615356445312 1.9507500000000002 5.722990356445313 1.9683750000000002 Q 5.687365356445312 1.9860000000000002 5.646115356445312 1.9860000000000002 M 6.212406005859375 1.5870000000000002 Q 6.225906005859375 1.5870000000000002 6.234156005859375 1.595625 Q 6.242406005859375 1.6042500000000002 6.242406005859375 1.6170000000000002 L 6.242406005859375 1.94775 Q 6.242406005859375 1.9605000000000001 6.233781005859375 1.9695000000000003 Q 6.225156005859375 1.9785000000000001 6.212406005859375 1.9785000000000001 Q 6.199656005859375 1.9785000000000001 6.191031005859375 1.9695000000000003 Q 6.182406005859375 1.9605000000000001 6.182406005859375 1.94775 L 6.182406005859375 1.8765 L 6.196656005859375 1.8750000000000002 Q 6.196656005859375 1.8915000000000002 6.185406005859375 1.911 Q 6.174156005859375 1.9305 6.154656005859375 1.947375 Q 6.135156005859375 1.96425 6.108906005859375 1.9751250000000002 Q 6.082656005859375 1.9860000000000002 6.051906005859375 1.9860000000000002 Q 6.000906005859375 1.9860000000000002 5.960031005859375 1.959375 Q 5.919156005859375 1.9327500000000002 5.895906005859375 1.8870000000000002 Q 5.872656005859375 1.84125 5.872656005859375 1.78275 Q 5.872656005859375 1.7235 5.896281005859375 1.678125 Q 5.919906005859375 1.6327500000000001 5.960031005859375 1.606875 Q 6.000156005859375 1.5810000000000002 6.050406005859375 1.5810000000000002 Q 6.082656005859375 1.5810000000000002 6.1104060058593745 1.5915000000000001 Q 6.138156005859375 1.602 6.158781005859375 1.62 Q 6.179406005859375 1.6380000000000001 6.190656005859375 1.65975 Q 6.201906005859375 1.6815000000000002 6.201906005859375 1.7032500000000002 L 6.182406005859375 1.6987500000000002 L 6.182406005859375 1.6170000000000002 Q 6.182406005859375 1.6042500000000002 6.191031005859375 1.595625 Q 6.199656005859375 1.5870000000000002 6.212406005859375 1.5870000000000002 M 6.057906005859375 1.9305 Q 6.095406005859375 1.9305 6.124281005859375 1.911 Q 6.153156005859375 1.8915000000000002 6.169656005859375 1.8581250000000002 Q 6.186156005859375 1.82475 6.186156005859375 1.78275 Q 6.186156005859375 1.7415 6.169656005859375 1.7081250000000001 Q 6.153156005859375 1.6747500000000002 6.124281005859375 1.6556250000000001 Q 6.095406005859375 1.6365 6.057906005859375 1.6365 Q 6.021156005859375 1.6365 5.992281005859375 1.65525 Q 5.963406005859375 1.6740000000000002 5.946906005859375 1.707 Q 5.930406005859375 1.7400000000000002 5.930406005859375 1.78275 Q 5.930406005859375 1.82475 5.946906005859375 1.8581250000000002 Q 5.963406005859375 1.8915000000000002 5.992281005859375 1.911 Q 6.021156005859375 1.9305 6.057906005859375 1.9305 M 6.53866259765625 1.58475 Q 6.58966259765625 1.58475 6.62153759765625 1.6106250000000002 Q 6.65341259765625 1.6365 6.66391259765625 1.68375 L 6.65266259765625 1.68375 L 6.65791259765625 1.6702500000000002 Q 6.66691259765625 1.64925 6.68866259765625 1.62975 Q 6.71041259765625 1.6102500000000002 6.73891259765625 1.5975000000000001 Q 6.76741259765625 1.58475 6.79816259765625 1.58475 Q 6.8476625976562495 1.58475 6.87616259765625 1.606125 Q 6.90466259765625 1.6275000000000002 6.91703759765625 1.6631250000000002 Q 6.92941259765625 1.6987500000000002 6.92941259765625 1.743 L 6.92941259765625 1.94775 Q 6.92941259765625 1.9605000000000001 6.9207875976562505 1.9695000000000003 Q 6.91216259765625 1.9785000000000001 6.89941259765625 1.9785000000000001 Q 6.88591259765625 1.9785000000000001 6.87766259765625 1.9695000000000003 Q 6.86941259765625 1.9605000000000001 6.86941259765625 1.94775 L 6.86941259765625 1.7445000000000002 Q 6.86941259765625 1.7152500000000002 6.86078759765625 1.6916250000000002 Q 6.85216259765625 1.6680000000000001 6.83303759765625 1.654125 Q 6.81391259765625 1.6402500000000002 6.78091259765625 1.6402500000000002 Q 6.75016259765625 1.6402500000000002 6.72466259765625 1.654125 Q 6.69916259765625 1.6680000000000001 6.68416259765625 1.6916250000000002 Q 6.66916259765625 1.7152500000000002 6.66916259765625 1.7445000000000002 L 6.66916259765625 1.94775 Q 6.66916259765625 1.9605000000000001 6.6609125976562495 1.9695000000000003 Q 6.65266259765625 1.9785000000000001 6.63916259765625 1.9785000000000001 Q 6.62641259765625 1.9785000000000001 6.61778759765625 1.9695000000000003 Q 6.60916259765625 1.9605000000000001 6.60916259765625 1.94775 L 6.60916259765625 1.74225 Q 6.60916259765625 1.71375 6.60128759765625 1.6908750000000001 Q 6.59341259765625 1.6680000000000001 6.57466259765625 1.654125 Q 6.55591259765625 1.6402500000000002 6.52291259765625 1.6402500000000002 Q 6.49291259765625 1.6402500000000002 6.46816259765625 1.654125 Q 6.44341259765625 1.6680000000000001 6.42841259765625 1.6908750000000001 Q 6.41341259765625 1.71375 6.41341259765625 1.74225 L 6.41341259765625 1.94775 Q 6.41341259765625 1.9605000000000001 6.40478759765625 1.9695000000000003 Q 6.39616259765625 1.9785000000000001 6.38341259765625 1.9785000000000001 Q 6.37066259765625 1.9785000000000001 6.36203759765625 1.9695000000000003 Q 6.35341259765625 1.9605000000000001 6.35341259765625 1.94775 L 6.35341259765625 1.6207500000000001 Q 6.35341259765625 1.608 6.36203759765625 1.5993750000000002 Q 6.37066259765625 1.59075 6.38341259765625 1.59075 Q 6.39691259765625 1.59075 6.40516259765625 1.5993750000000002 Q 6.41341259765625 1.608 6.41341259765625 1.6207500000000001 L 6.41341259765625 1.67775 L 6.39691259765625 1.69575 Q 6.39991259765625 1.67625 6.41228759765625 1.6567500000000002 Q 6.42466259765625 1.63725 6.44416259765625 1.6207500000000001 Q 6.46366259765625 1.6042500000000002 6.48766259765625 1.5945 Q 6.51166259765625 1.58475 6.53866259765625 1.58475 M 7.01867431640625 1.9170000000000003 Q 7.01192431640625 1.9072500000000001 7.01267431640625 1.8963750000000001 Q 7.01342431640625 1.8855000000000002 7.02542431640625 1.87725 Q 7.03292431640625 1.872 7.04304931640625 1.8727500000000001 Q 7.05317431640625 1.8735000000000002 7.06142431640625 1.8825 Q 7.08242431640625 1.9072500000000001 7.10942431640625 1.9218750000000002 Q 7.13642431640625 1.9365 7.17542431640625 1.9365 Q 7.19342431640625 1.93575 7.21142431640625 1.9305 Q 7.22942431640625 1.9252500000000001 7.24179931640625 1.912125 Q 7.2541743164062495 1.8990000000000002 7.2541743164062495 1.87725 Q 7.2541743164062495 1.8562500000000002 7.24142431640625 1.8438750000000002 Q 7.22867431640625 1.8315000000000001 7.20842431640625 1.823625 Q 7.18817431640625 1.8157500000000002 7.16417431640625 1.8097500000000002 Q 7.13942431640625 1.8030000000000002 7.11542431640625 1.794375 Q 7.09142431640625 1.7857500000000002 7.07229931640625 1.7726250000000001 Q 7.05317431640625 1.7595 7.04154931640625 1.7396250000000002 Q 7.02992431640625 1.7197500000000001 7.02992431640625 1.6912500000000001 Q 7.02992431640625 1.6575000000000002 7.04829931640625 1.6327500000000001 Q 7.06667431640625 1.608 7.09779931640625 1.5945 Q 7.12892431640625 1.5810000000000002 7.16567431640625 1.5810000000000002 Q 7.18667431640625 1.5810000000000002 7.20954931640625 1.5858750000000001 Q 7.23242431640625 1.59075 7.2541743164062495 1.602375 Q 7.27592431640625 1.614 7.29242431640625 1.6342500000000002 Q 7.29917431640625 1.64175 7.29992431640625 1.653 Q 7.30067431640625 1.66425 7.29017431640625 1.6732500000000001 Q 7.28192431640625 1.6792500000000001 7.27179931640625 1.6785 Q 7.26167431640625 1.67775 7.25492431640625 1.6710000000000003 Q 7.23917431640625 1.6522500000000002 7.21554931640625 1.642125 Q 7.19192431640625 1.6320000000000001 7.16342431640625 1.6320000000000001 Q 7.14542431640625 1.6320000000000001 7.12817431640625 1.63725 Q 7.11092431640625 1.6425 7.09929931640625 1.654875 Q 7.08767431640625 1.6672500000000001 7.08767431640625 1.689 Q 7.08842431640625 1.7092500000000002 7.10117431640625 1.7220000000000002 Q 7.11392431640625 1.7347500000000002 7.13567431640625 1.742625 Q 7.15742431640625 1.7505000000000002 7.18367431640625 1.7580000000000002 Q 7.20767431640625 1.7640000000000002 7.22979931640625 1.771875 Q 7.25192431640625 1.7797500000000002 7.26992431640625 1.7925000000000002 Q 7.28792431640625 1.80525 7.29842431640625 1.825125 Q 7.30892431640625 1.8450000000000002 7.30892431640625 1.8750000000000002 Q 7.30892431640625 1.9095000000000002 7.28942431640625 1.934625 Q 7.26992431640625 1.95975 7.23804931640625 1.9728750000000002 Q 7.20617431640625 1.9860000000000002 7.16942431640625 1.9860000000000002 Q 7.12817431640625 1.9860000000000002 7.08804931640625 1.97025 Q 7.04792431640625 1.9545000000000001 7.01867431640625 1.9170000000000003 M 7.472423583984375 1.9747500000000002 Q 7.472423583984375 1.9897500000000001 7.466048583984375 2.006625 Q 7.459673583984375 2.0235000000000003 7.448423583984375 2.0385 Q 7.437173583984375 2.0535 7.423673583984375 2.062875 Q 7.410173583984375 2.0722500000000004 7.396673583984375 2.0722500000000004 Q 7.386173583984375 2.0722500000000004 7.379048583984375 2.067375 Q 7.371923583984375 2.0625 7.371923583984375 2.05125 Q 7.371923583984375 2.0370000000000004 7.381298583984375 2.0347500000000003 Q 7.390673583984375 2.0325 7.399673583984375 2.028 Q 7.409423583984375 2.0227500000000003 7.415048583984375 2.0133750000000004 Q 7.420673583984375 2.004 7.420673583984375 1.9935 Q 7.420673583984375 1.9852500000000002 7.415048583984375 1.9796250000000002 Q 7.409423583984375 1.9740000000000002 7.400423583984375 1.9740000000000002 Q 7.395173583984375 1.9740000000000002 7.389548583984375 1.9755000000000003 Q 7.383923583984375 1.977 7.380173583984375 1.9800000000000002 Q 7.374923583984375 1.97625 7.371173583984375 1.971 Q 7.367423583984375 1.96575 7.367423583984375 1.9575000000000002 Q 7.368173583984375 1.94625 7.376048583984375 1.9372500000000001 Q 7.383923583984375 1.9282500000000002 7.396298583984375 1.923 Q 7.408673583984375 1.91775 7.419923583984375 1.91775 Q 7.443173583984375 1.91775 7.457798583984375 1.9323750000000002 Q 7.472423583984375 1.947 7.472423583984375 1.9747500000000002 M 8.004198120117188 1.4535 Q 8.070198120117187 1.4535 8.105823120117188 1.4876250000000002 Q 8.141448120117188 1.5217500000000002 8.141448120117188 1.584 Q 8.141448120117188 1.6170000000000002 8.126448120117187 1.6447500000000002 Q 8.111448120117188 1.6725 8.082573120117187 1.689 Q 8.053698120117188 1.7055000000000002 8.011698120117188 1.707 L 8.010198120117188 1.6860000000000002 Q 8.036448120117187 1.6860000000000002 8.064198120117187 1.6935000000000002 Q 8.091948120117188 1.701 8.115573120117187 1.7175000000000002 Q 8.139198120117188 1.7340000000000002 8.153823120117188 1.7610000000000001 Q 8.168448120117187 1.7880000000000003 8.168448120117187 1.8277500000000002 Q 8.168448120117187 1.8705 8.154198120117188 1.899375 Q 8.139948120117188 1.9282500000000002 8.116323120117187 1.9458750000000002 Q 8.092698120117188 1.9635000000000002 8.063823120117188 1.971 Q 8.034948120117187 1.9785000000000001 8.005698120117188 1.9785000000000001 L 7.808448120117188 1.9785000000000001 Q 7.795698120117187 1.9785000000000001 7.787073120117188 1.9695000000000003 Q 7.778448120117187 1.9605000000000001 7.778448120117187 1.94775 L 7.778448120117187 1.4835000000000003 Q 7.778448120117187 1.4707500000000002 7.787073120117188 1.4621250000000001 Q 7.795698120117187 1.4535 7.808448120117188 1.4535 L 8.004198120117188 1.4535 M 7.995198120117188 1.51275 L 7.833948120117188 1.51275 L 7.842948120117187 1.4992500000000002 L 7.842948120117187 1.6860000000000002 L 7.834698120117188 1.67625 L 7.996698120117188 1.67625 Q 8.029698120117187 1.67625 8.053323120117188 1.654875 Q 8.076948120117187 1.6335000000000002 8.076948120117187 1.5915000000000001 Q 8.076948120117187 1.5540000000000003 8.055198120117188 1.5333750000000002 Q 8.033448120117187 1.51275 7.995198120117188 1.51275 M 8.001198120117188 1.73625 L 7.837698120117188 1.73625 L 7.842948120117187 1.731 L 7.842948120117187 1.9267500000000002 L 7.836948120117188 1.9200000000000002 L 8.003448120117188 1.9200000000000002 Q 8.047698120117188 1.9200000000000002 8.075823120117187 1.8975000000000002 Q 8.103948120117188 1.8750000000000002 8.103948120117188 1.8277500000000002 Q 8.103948120117188 1.7910000000000001 8.088948120117188 1.771125 Q 8.073948120117187 1.7512500000000002 8.050323120117188 1.7437500000000001 Q 8.026698120117187 1.73625 8.001198120117188 1.73625 M 8.54795947265625 1.59075 Q 8.56145947265625 1.59075 8.56970947265625 1.5993750000000002 Q 8.57795947265625 1.608 8.57795947265625 1.6207500000000001 L 8.57795947265625 1.8255000000000001 Q 8.57795947265625 1.90125 8.53558447265625 1.9428750000000001 Q 8.49320947265625 1.9845000000000002 8.41745947265625 1.9845000000000002 Q 8.34245947265625 1.9845000000000002 8.30008447265625 1.9428750000000001 Q 8.25770947265625 1.90125 8.25770947265625 1.8255000000000001 L 8.25770947265625 1.6207500000000001 Q 8.25770947265625 1.608 8.26633447265625 1.5993750000000002 Q 8.27495947265625 1.59075 8.28770947265625 1.59075 Q 8.30120947265625 1.59075 8.30945947265625 1.5993750000000002 Q 8.31770947265625 1.608 8.31770947265625 1.6207500000000001 L 8.31770947265625 1.8255000000000001 Q 8.31770947265625 1.8765 8.34395947265625 1.9027500000000002 Q 8.37020947265625 1.929 8.41745947265625 1.929 Q 8.46620947265625 1.929 8.49208447265625 1.9027500000000002 Q 8.51795947265625 1.8765 8.51795947265625 1.8255000000000001 L 8.51795947265625 1.6207500000000001 Q 8.51795947265625 1.608 8.52658447265625 1.5993750000000002 Q 8.53520947265625 1.59075 8.54795947265625 1.59075 M 8.746718627929688 1.94775 Q 8.746718627929688 1.9605000000000001 8.738093627929688 1.9695000000000003 Q 8.729468627929688 1.9785000000000001 8.716718627929687 1.9785000000000001 Q 8.703218627929688 1.9785000000000001 8.694968627929688 1.9695000000000003 Q 8.686718627929688 1.9605000000000001 8.686718627929688 1.94775 L 8.686718627929688 1.6147500000000001 Q 8.686718627929688 1.602 8.695343627929688 1.5933750000000002 Q 8.703968627929687 1.58475 8.716718627929687 1.58475 Q 8.729468627929688 1.58475 8.738093627929688 1.5933750000000002 Q 8.746718627929688 1.602 8.746718627929688 1.6147500000000001 L 8.746718627929688 1.94775 M 8.716718627929687 1.5345000000000002 Q 8.697968627929688 1.5345000000000002 8.688968627929688 1.5270000000000001 Q 8.679968627929687 1.5195 8.679968627929687 1.5037500000000001 L 8.679968627929687 1.4932500000000002 Q 8.679968627929687 1.4775 8.689718627929688 1.4700000000000002 Q 8.699468627929688 1.4625000000000001 8.717468627929687 1.4625000000000001 Q 8.735468627929688 1.4625000000000001 8.744468627929688 1.4700000000000002 Q 8.753468627929687 1.4775 8.753468627929687 1.4932500000000002 L 8.753468627929687 1.5037500000000001 Q 8.753468627929687 1.5195 8.744093627929688 1.5270000000000001 Q 8.734718627929688 1.5345000000000002 8.716718627929687 1.5345000000000002 M 8.920724853515624 1.94775 Q 8.920724853515624 1.9605000000000001 8.911724853515626 1.9695000000000003 Q 8.902724853515625 1.9785000000000001 8.889974853515625 1.9785000000000001 Q 8.877224853515624 1.9785000000000001 8.868974853515626 1.9695000000000003 Q 8.860724853515626 1.9605000000000001 8.860724853515626 1.94775 L 8.860724853515626 1.4535 Q 8.860724853515626 1.44075 8.869349853515626 1.432125 Q 8.877974853515624 1.4235000000000002 8.890724853515625 1.4235000000000002 Q 8.904224853515625 1.4235000000000002 8.912474853515626 1.432125 Q 8.920724853515624 1.44075 8.920724853515624 1.4535 L 8.920724853515624 1.94775 M 9.345203247070312 1.4235000000000002 Q 9.358703247070313 1.4235000000000002 9.366953247070313 1.432125 Q 9.375203247070312 1.44075 9.375203247070312 1.4535 L 9.375203247070312 1.94775 Q 9.375203247070312 1.9605000000000001 9.366578247070313 1.9695000000000003 Q 9.357953247070313 1.9785000000000001 9.345203247070312 1.9785000000000001 Q 9.332453247070312 1.9785000000000001 9.323828247070313 1.9695000000000003 Q 9.315203247070313 1.9605000000000001 9.315203247070313 1.94775 L 9.315203247070313 1.8765 L 9.329453247070312 1.87125 Q 9.329453247070312 1.88925 9.318578247070313 1.9091250000000002 Q 9.307703247070313 1.929 9.287828247070312 1.94625 Q 9.267953247070313 1.9635000000000002 9.241703247070312 1.9747500000000002 Q 9.215453247070313 1.9860000000000002 9.184703247070313 1.9860000000000002 Q 9.133703247070313 1.9860000000000002 9.093203247070312 1.95975 Q 9.052703247070312 1.9335000000000002 9.029078247070313 1.88775 Q 9.005453247070312 1.842 9.005453247070312 1.7835 Q 9.005453247070312 1.72425 9.029078247070313 1.6785 Q 9.052703247070312 1.6327500000000001 9.092828247070312 1.606875 Q 9.132953247070313 1.5810000000000002 9.183203247070313 1.5810000000000002 Q 9.214703247070313 1.5810000000000002 9.242078247070312 1.5915000000000001 Q 9.269453247070313 1.602 9.290453247070312 1.62 Q 9.311453247070313 1.6380000000000001 9.323078247070313 1.65975 Q 9.334703247070312 1.6815000000000002 9.334703247070312 1.7032500000000002 L 9.315203247070313 1.6987500000000002 L 9.315203247070313 1.4535 Q 9.315203247070313 1.44075 9.323828247070313 1.432125 Q 9.332453247070312 1.4235000000000002 9.345203247070312 1.4235000000000002 M 9.190703247070312 1.9305 Q 9.228953247070313 1.9305 9.257453247070313 1.911375 Q 9.285953247070312 1.8922500000000002 9.302453247070313 1.858875 Q 9.318953247070313 1.8255000000000001 9.318953247070313 1.7835 Q 9.318953247070313 1.7407500000000002 9.302453247070313 1.70775 Q 9.285953247070312 1.6747500000000002 9.257078247070313 1.6556250000000001 Q 9.228203247070313 1.6365 9.190703247070312 1.6365 Q 9.153953247070312 1.6365 9.125078247070313 1.6556250000000001 Q 9.096203247070312 1.6747500000000002 9.079703247070313 1.70775 Q 9.063203247070312 1.7407500000000002 9.063203247070312 1.7835 Q 9.063203247070312 1.82475 9.079703247070313 1.8581250000000002 Q 9.096203247070312 1.8915000000000002 9.125078247070313 1.911 Q 9.153953247070312 1.9305 9.190703247070312 1.9305 M 9.543959838867188 1.94775 Q 9.543959838867188 1.9605000000000001 9.535334838867188 1.9695000000000003 Q 9.526709838867188 1.9785000000000001 9.513959838867187 1.9785000000000001 Q 9.500459838867188 1.9785000000000001 9.492209838867188 1.9695000000000003 Q 9.483959838867188 1.9605000000000001 9.483959838867188 1.94775 L 9.483959838867188 1.6147500000000001 Q 9.483959838867188 1.602 9.492584838867188 1.5933750000000002 Q 9.501209838867187 1.58475 9.513959838867187 1.58475 Q 9.526709838867188 1.58475 9.535334838867188 1.5933750000000002 Q 9.543959838867188 1.602 9.543959838867188 1.6147500000000001 L 9.543959838867188 1.94775 M 9.513959838867187 1.5345000000000002 Q 9.495209838867188 1.5345000000000002 9.486209838867188 1.5270000000000001 Q 9.477209838867187 1.5195 9.477209838867187 1.5037500000000001 L 9.477209838867187 1.4932500000000002 Q 9.477209838867187 1.4775 9.486959838867188 1.4700000000000002 Q 9.496709838867188 1.4625000000000001 9.514709838867187 1.4625000000000001 Q 9.532709838867188 1.4625000000000001 9.541709838867188 1.4700000000000002 Q 9.550709838867187 1.4775 9.550709838867187 1.4932500000000002 L 9.550709838867187 1.5037500000000001 Q 9.550709838867187 1.5195 9.541334838867188 1.5270000000000001 Q 9.531959838867188 1.5345000000000002 9.513959838867187 1.5345000000000002 M 9.844716064453126 1.5810000000000002 Q 9.895716064453126 1.5810000000000002 9.924966064453125 1.602 Q 9.954216064453124 1.6230000000000002 9.966591064453125 1.6582500000000002 Q 9.978966064453125 1.6935000000000002 9.978966064453125 1.737 L 9.978966064453125 1.94775 Q 9.978966064453125 1.9605000000000001 9.970341064453125 1.9695000000000003 Q 9.961716064453125 1.9785000000000001 9.948966064453124 1.9785000000000001 Q 9.936216064453125 1.9785000000000001 9.927591064453125 1.9695000000000003 Q 9.918966064453125 1.9605000000000001 9.918966064453125 1.94775 L 9.918966064453125 1.7385000000000002 Q 9.918966064453125 1.7100000000000002 9.910341064453124 1.6871250000000002 Q 9.901716064453126 1.66425 9.881841064453125 1.6503750000000001 Q 9.861966064453124 1.6365 9.827466064453125 1.6365 Q 9.795966064453125 1.6365 9.769716064453124 1.6503750000000001 Q 9.743466064453125 1.66425 9.727716064453125 1.6871250000000002 Q 9.711966064453126 1.7100000000000002 9.711966064453126 1.7385000000000002 L 9.711966064453126 1.94775 Q 9.711966064453126 1.9605000000000001 9.703341064453125 1.9695000000000003 Q 9.694716064453125 1.9785000000000001 9.681966064453125 1.9785000000000001 Q 9.669216064453124 1.9785000000000001 9.660591064453126 1.9695000000000003 Q 9.651966064453125 1.9605000000000001 9.651966064453125 1.94775 L 9.651966064453125 1.6207500000000001 Q 9.651966064453125 1.608 9.660591064453126 1.5993750000000002 Q 9.669216064453124 1.59075 9.681966064453125 1.59075 Q 9.695466064453125 1.59075 9.703716064453126 1.5993750000000002 Q 9.711966064453126 1.608 9.711966064453126 1.6207500000000001 L 9.711966064453126 1.6740000000000002 L 9.696966064453125 1.6905000000000001 Q 9.700716064453125 1.6710000000000003 9.714216064453124 1.6511250000000002 Q 9.727716064453125 1.63125 9.747966064453125 1.6155000000000002 Q 9.768216064453124 1.5997500000000002 9.792966064453125 1.590375 Q 9.817716064453125 1.5810000000000002 9.844716064453126 1.5810000000000002 M 10.248954345703124 1.5810000000000002 Q 10.281954345703125 1.5810000000000002 10.309704345703125 1.5918750000000002 Q 10.337454345703126 1.6027500000000001 10.358079345703125 1.62 Q 10.378704345703126 1.63725 10.390329345703124 1.6560000000000001 Q 10.401954345703125 1.6747500000000002 10.401954345703125 1.6912500000000001 L 10.386954345703124 1.6822500000000002 L 10.386954345703124 1.6170000000000002 Q 10.386954345703124 1.6042500000000002 10.395579345703124 1.595625 Q 10.404204345703125 1.5870000000000002 10.416954345703125 1.5870000000000002 Q 10.430454345703126 1.5870000000000002 10.438704345703124 1.595625 Q 10.446954345703125 1.6042500000000002 10.446954345703125 1.6170000000000002 L 10.446954345703125 1.9455000000000002 Q 10.446954345703125 2.007 10.421079345703125 2.0475000000000003 Q 10.395204345703124 2.088 10.351704345703125 2.10825 Q 10.308204345703125 2.1285000000000003 10.254954345703124 2.1285000000000003 Q 10.232454345703125 2.1285000000000003 10.205079345703124 2.1225 Q 10.177704345703125 2.1165000000000003 10.156704345703124 2.107875 Q 10.135704345703125 2.09925 10.130454345703125 2.09025 Q 10.119204345703125 2.0827500000000003 10.116579345703125 2.073375 Q 10.113954345703124 2.064 10.119204345703125 2.05575 Q 10.126704345703125 2.0452500000000002 10.137204345703125 2.0452500000000002 Q 10.147704345703126 2.0452500000000002 10.164204345703125 2.052 Q 10.171704345703125 2.05425 10.185954345703125 2.0595000000000003 Q 10.200204345703124 2.06475 10.218954345703125 2.0688750000000002 Q 10.237704345703126 2.073 10.255704345703125 2.073 Q 10.319454345703125 2.073 10.353204345703125 2.039625 Q 10.386954345703124 2.00625 10.386954345703124 1.9515000000000002 L 10.386954345703124 1.8817500000000003 L 10.395204345703124 1.8855000000000002 Q 10.390704345703124 1.9065 10.377204345703126 1.9245 Q 10.363704345703125 1.9425000000000001 10.343829345703124 1.9563750000000002 Q 10.323954345703125 1.97025 10.299579345703124 1.9781250000000001 Q 10.275204345703125 1.9860000000000002 10.250454345703124 1.9860000000000002 Q 10.197954345703126 1.9860000000000002 10.156329345703124 1.95975 Q 10.114704345703124 1.9335000000000002 10.090329345703125 1.88775 Q 10.065954345703124 1.842 10.065954345703124 1.7835 Q 10.065954345703124 1.72425 10.090329345703125 1.6785 Q 10.114704345703124 1.6327500000000001 10.155954345703124 1.606875 Q 10.197204345703126 1.5810000000000002 10.248954345703124 1.5810000000000002 M 10.257204345703125 1.6365 Q 10.218204345703125 1.6365 10.188204345703125 1.6556250000000001 Q 10.158204345703124 1.6747500000000002 10.140954345703125 1.70775 Q 10.123704345703125 1.7407500000000002 10.123704345703125 1.7835 Q 10.123704345703125 1.82475 10.140954345703125 1.8581250000000002 Q 10.158204345703124 1.8915000000000002 10.188204345703125 1.911 Q 10.218204345703125 1.9305 10.257204345703125 1.9305 Q 10.296204345703124 1.9305 10.326204345703125 1.911375 Q 10.356204345703125 1.8922500000000002 10.373454345703125 1.85925 Q 10.390704345703124 1.8262500000000002 10.390704345703124 1.7835 Q 10.390704345703124 1.7400000000000002 10.373454345703125 1.707 Q 10.356204345703125 1.6740000000000002 10.326204345703125 1.65525 Q 10.296204345703124 1.6365 10.257204345703125 1.6365 M 11.152740234375 1.4880000000000002 Q 11.165490234375 1.4947500000000002 11.167365234375 1.50825 Q 11.169240234375 1.5217500000000002 11.160240234375 1.5330000000000001 Q 11.153490234375 1.54275 11.142990234375 1.5435 Q 11.132490234375 1.5442500000000001 11.121990234375 1.5390000000000001 Q 11.097240234375 1.524 11.068740234375 1.5153750000000001 Q 11.040240234375 1.5067500000000003 11.008740234375 1.5067500000000003 Q 10.964490234375 1.5067500000000003 10.927740234375 1.5221250000000002 Q 10.890990234375 1.5375 10.863990234375 1.5652500000000003 Q 10.836990234375 1.5930000000000002 10.821990234375 1.63125 Q 10.806990234375 1.6695000000000002 10.806990234375 1.7160000000000002 Q 10.806990234375 1.7655 10.822740234375 1.8045000000000002 Q 10.838490234375 1.8435000000000001 10.865865234375 1.870875 Q 10.893240234375 1.8982500000000002 10.929615234375 1.9125 Q 10.965990234374999 1.9267500000000002 11.008740234375 1.9267500000000002 Q 11.039490234375 1.9267500000000002 11.067990234375 1.9185 Q 11.096490234375 1.9102500000000002 11.121990234375 1.8945 Q 11.132490234375 1.88925 11.142990234375 1.8907500000000002 Q 11.153490234375 1.8922500000000002 11.160990234375 1.90125 Q 11.169990234375 1.9132500000000001 11.167740234375 1.9263750000000002 Q 11.165490234375 1.9395000000000002 11.153490234375 1.9455000000000002 Q 11.134740234375 1.9567500000000002 11.110740234375 1.9661250000000001 Q 11.086740234375 1.9755000000000003 11.060865234375001 1.9807500000000002 Q 11.034990234375 1.9860000000000002 11.008740234375 1.9860000000000002 Q 10.954740234375 1.9860000000000002 10.906740234375 1.9672500000000002 Q 10.858740234375 1.9485000000000001 10.821990234375 1.9132500000000001 Q 10.785240234375 1.8780000000000001 10.763865234375 1.8281250000000002 Q 10.742490234375 1.77825 10.742490234375 1.7160000000000002 Q 10.742490234375 1.6575000000000002 10.762740234375 1.6087500000000001 Q 10.782990234375 1.56 10.819365234375 1.524 Q 10.855740234375 1.4880000000000002 10.904115234375 1.46775 Q 10.952490234375 1.4475000000000002 11.008740234375 1.4475000000000002 Q 11.047740234375 1.4475000000000002 11.084865234375 1.4580000000000002 Q 11.121990234375 1.4685000000000001 11.152740234375 1.4880000000000002 M 11.5637548828125 1.5870000000000002 Q 11.5772548828125 1.5870000000000002 11.5855048828125 1.595625 Q 11.5937548828125 1.6042500000000002 11.5937548828125 1.6170000000000002 L 11.5937548828125 1.94775 Q 11.5937548828125 1.9605000000000001 11.5851298828125 1.9695000000000003 Q 11.5765048828125 1.9785000000000001 11.5637548828125 1.9785000000000001 Q 11.5510048828125 1.9785000000000001 11.5423798828125 1.9695000000000003 Q 11.5337548828125 1.9605000000000001 11.5337548828125 1.94775 L 11.5337548828125 1.8765 L 11.5480048828125 1.8750000000000002 Q 11.5480048828125 1.8915000000000002 11.5367548828125 1.911 Q 11.5255048828125 1.9305 11.5060048828125 1.947375 Q 11.4865048828125 1.96425 11.4602548828125 1.9751250000000002 Q 11.4340048828125 1.9860000000000002 11.4032548828125 1.9860000000000002 Q 11.3522548828125 1.9860000000000002 11.3113798828125 1.959375 Q 11.2705048828125 1.9327500000000002 11.2472548828125 1.8870000000000002 Q 11.2240048828125 1.84125 11.2240048828125 1.78275 Q 11.2240048828125 1.7235 11.2476298828125 1.678125 Q 11.2712548828125 1.6327500000000001 11.3113798828125 1.606875 Q 11.3515048828125 1.5810000000000002 11.4017548828125 1.5810000000000002 Q 11.4340048828125 1.5810000000000002 11.4617548828125 1.5915000000000001 Q 11.4895048828125 1.602 11.5101298828125 1.62 Q 11.5307548828125 1.6380000000000001 11.5420048828125 1.65975 Q 11.5532548828125 1.6815000000000002 11.5532548828125 1.7032500000000002 L 11.5337548828125 1.6987500000000002 L 11.5337548828125 1.6170000000000002 Q 11.5337548828125 1.6042500000000002 11.5423798828125 1.595625 Q 11.5510048828125 1.5870000000000002 11.5637548828125 1.5870000000000002 M 11.4092548828125 1.9305 Q 11.4467548828125 1.9305 11.4756298828125 1.911 Q 11.5045048828125 1.8915000000000002 11.5210048828125 1.8581250000000002 Q 11.5375048828125 1.82475 11.5375048828125 1.78275 Q 11.5375048828125 1.7415 11.5210048828125 1.7081250000000001 Q 11.5045048828125 1.6747500000000002 11.4756298828125 1.6556250000000001 Q 11.4467548828125 1.6365 11.4092548828125 1.6365 Q 11.3725048828125 1.6365 11.3436298828125 1.65525 Q 11.3147548828125 1.6740000000000002 11.2982548828125 1.707 Q 11.2817548828125 1.7400000000000002 11.2817548828125 1.78275 Q 11.2817548828125 1.82475 11.2982548828125 1.8581250000000002 Q 11.3147548828125 1.8915000000000002 11.3436298828125 1.911 Q 11.3725048828125 1.9305 11.4092548828125 1.9305 M 11.734761474609375 1.9785000000000001 Q 11.722011474609374 1.9785000000000001 11.713386474609376 1.9695000000000003 Q 11.704761474609375 1.9605000000000001 11.704761474609375 1.94775 L 11.704761474609375 1.6207500000000001 Q 11.704761474609375 1.608 11.713386474609376 1.5993750000000002 Q 11.722011474609374 1.59075 11.734761474609375 1.59075 Q 11.748261474609375 1.59075 11.756511474609376 1.5993750000000002 Q 11.764761474609376 1.608 11.764761474609376 1.6207500000000001 L 11.764761474609376 1.7197500000000001 L 11.755761474609375 1.7040000000000002 Q 11.760261474609376 1.6807500000000002 11.771886474609374 1.6586250000000002 Q 11.783511474609375 1.6365 11.801511474609375 1.618875 Q 11.819511474609374 1.60125 11.842761474609375 1.5911250000000001 Q 11.866011474609374 1.5810000000000002 11.893761474609375 1.5810000000000002 Q 11.910261474609374 1.5810000000000002 11.924136474609375 1.5888750000000003 Q 11.938011474609375 1.5967500000000001 11.938011474609375 1.6110000000000002 Q 11.938011474609375 1.6267500000000001 11.929761474609375 1.6342500000000002 Q 11.921511474609375 1.64175 11.911011474609374 1.64175 Q 11.901261474609376 1.64175 11.892261474609375 1.637625 Q 11.883261474609375 1.6335000000000002 11.869761474609374 1.6335000000000002 Q 11.851011474609376 1.6335000000000002 11.832636474609375 1.6436250000000001 Q 11.814261474609374 1.65375 11.798886474609375 1.6725 Q 11.783511474609375 1.6912500000000001 11.774136474609374 1.7148750000000001 Q 11.764761474609376 1.7385000000000002 11.764761474609376 1.7655 L 11.764761474609376 1.94775 Q 11.764761474609376 1.9605000000000001 11.756136474609375 1.9695000000000003 Q 11.747511474609375 1.9785000000000001 11.734761474609375 1.9785000000000001 M 12.16453271484375 1.9860000000000002 Q 12.10453271484375 1.9860000000000002 12.05953271484375 1.9605000000000001 Q 12.01453271484375 1.935 11.98978271484375 1.8903750000000001 Q 11.96503271484375 1.8457500000000002 11.96503271484375 1.7872500000000002 Q 11.96503271484375 1.7220000000000002 11.99090771484375 1.675875 Q 12.01678271484375 1.62975 12.05803271484375 1.6053750000000002 Q 12.09928271484375 1.5810000000000002 12.14578271484375 1.5810000000000002 Q 12.18103271484375 1.5810000000000002 12.21290771484375 1.5937500000000002 Q 12.24478271484375 1.6065 12.26990771484375 1.630875 Q 12.29503271484375 1.65525 12.31003271484375 1.689375 Q 12.32503271484375 1.7235 12.32578271484375 1.7655 Q 12.32503271484375 1.7775 12.31603271484375 1.7857500000000002 Q 12.30703271484375 1.794 12.29503271484375 1.794 L 11.99878271484375 1.794 L 11.98528271484375 1.74225 L 12.27403271484375 1.74225 L 12.26203271484375 1.7527500000000003 L 12.26203271484375 1.73625 Q 12.25978271484375 1.7055000000000002 12.24215771484375 1.683375 Q 12.22453271484375 1.6612500000000001 12.19903271484375 1.64925 Q 12.17353271484375 1.63725 12.14578271484375 1.63725 Q 12.12328271484375 1.63725 12.10115771484375 1.6451250000000002 Q 12.07903271484375 1.653 12.06140771484375 1.6706250000000002 Q 12.04378271484375 1.68825 12.03328271484375 1.7160000000000002 Q 12.02278271484375 1.7437500000000001 12.02278271484375 1.78275 Q 12.02278271484375 1.8262500000000002 12.04040771484375 1.85925 Q 12.05803271484375 1.8922500000000002 12.08953271484375 1.911375 Q 12.12103271484375 1.9305 12.16228271484375 1.9305 Q 12.18928271484375 1.9305 12.20878271484375 1.92375 Q 12.22828271484375 1.9170000000000003 12.24215771484375 1.906875 Q 12.25603271484375 1.8967500000000002 12.26578271484375 1.8862500000000002 Q 12.27553271484375 1.8795000000000002 12.28528271484375 1.8795000000000002 Q 12.29578271484375 1.8795000000000002 12.30328271484375 1.8870000000000002 Q 12.31078271484375 1.8945 12.31078271484375 1.9050000000000002 Q 12.31078271484375 1.91775 12.29878271484375 1.9275000000000002 Q 12.27703271484375 1.9507500000000002 12.24140771484375 1.9683750000000002 Q 12.20578271484375 1.9860000000000002 12.16453271484375 1.9860000000000002 M 12.587552124023437 1.9860000000000002 Q 12.527552124023437 1.9860000000000002 12.482552124023437 1.9605000000000001 Q 12.437552124023437 1.935 12.412802124023438 1.8903750000000001 Q 12.388052124023437 1.8457500000000002 12.388052124023437 1.7872500000000002 Q 12.388052124023437 1.7220000000000002 12.413927124023438 1.675875 Q 12.439802124023437 1.62975 12.481052124023437 1.6053750000000002 Q 12.522302124023437 1.5810000000000002 12.568802124023437 1.5810000000000002 Q 12.604052124023438 1.5810000000000002 12.635927124023437 1.5937500000000002 Q 12.667802124023437 1.6065 12.692927124023438 1.630875 Q 12.718052124023437 1.65525 12.733052124023438 1.689375 Q 12.748052124023438 1.7235 12.748802124023438 1.7655 Q 12.748052124023438 1.7775 12.739052124023438 1.7857500000000002 Q 12.730052124023437 1.794 12.718052124023437 1.794 L 12.421802124023438 1.794 L 12.408302124023438 1.74225 L 12.697052124023438 1.74225 L 12.685052124023438 1.7527500000000003 L 12.685052124023438 1.73625 Q 12.682802124023437 1.7055000000000002 12.665177124023437 1.683375 Q 12.647552124023438 1.6612500000000001 12.622052124023437 1.64925 Q 12.596552124023438 1.63725 12.568802124023437 1.63725 Q 12.546302124023438 1.63725 12.524177124023437 1.6451250000000002 Q 12.502052124023438 1.653 12.484427124023437 1.6706250000000002 Q 12.466802124023438 1.68825 12.456302124023438 1.7160000000000002 Q 12.445802124023437 1.7437500000000001 12.445802124023437 1.78275 Q 12.445802124023437 1.8262500000000002 12.463427124023438 1.85925 Q 12.481052124023437 1.8922500000000002 12.512552124023438 1.911375 Q 12.544052124023438 1.9305 12.585302124023437 1.9305 Q 12.612302124023438 1.9305 12.631802124023437 1.92375 Q 12.651302124023438 1.9170000000000003 12.665177124023437 1.906875 Q 12.679052124023437 1.8967500000000002 12.688802124023438 1.8862500000000002 Q 12.698552124023438 1.8795000000000002 12.708302124023437 1.8795000000000002 Q 12.718802124023437 1.8795000000000002 12.726302124023437 1.8870000000000002 Q 12.733802124023438 1.8945 12.733802124023438 1.9050000000000002 Q 12.733802124023438 1.91775 12.721802124023437 1.9275000000000002 Q 12.700052124023438 1.9507500000000002 12.664427124023437 1.9683750000000002 Q 12.628802124023437 1.9860000000000002 12.587552124023437 1.9860000000000002 M 12.865071533203125 1.9785000000000001 Q 12.852321533203124 1.9785000000000001 12.843696533203126 1.9695000000000003 Q 12.835071533203125 1.9605000000000001 12.835071533203125 1.94775 L 12.835071533203125 1.6207500000000001 Q 12.835071533203125 1.608 12.843696533203126 1.5993750000000002 Q 12.852321533203124 1.59075 12.865071533203125 1.59075 Q 12.878571533203125 1.59075 12.886821533203126 1.5993750000000002 Q 12.895071533203126 1.608 12.895071533203126 1.6207500000000001 L 12.895071533203126 1.7197500000000001 L 12.886071533203125 1.7040000000000002 Q 12.890571533203126 1.6807500000000002 12.902196533203124 1.6586250000000002 Q 12.913821533203125 1.6365 12.931821533203125 1.618875 Q 12.949821533203124 1.60125 12.973071533203125 1.5911250000000001 Q 12.996321533203124 1.5810000000000002 13.024071533203125 1.5810000000000002 Q 13.040571533203124 1.5810000000000002 13.054446533203125 1.5888750000000003 Q 13.068321533203125 1.5967500000000001 13.068321533203125 1.6110000000000002 Q 13.068321533203125 1.6267500000000001 13.060071533203125 1.6342500000000002 Q 13.051821533203125 1.64175 13.041321533203124 1.64175 Q 13.031571533203126 1.64175 13.022571533203125 1.637625 Q 13.013571533203125 1.6335000000000002 13.000071533203124 1.6335000000000002 Q 12.981321533203126 1.6335000000000002 12.962946533203125 1.6436250000000001 Q 12.944571533203124 1.65375 12.929196533203125 1.6725 Q 12.913821533203125 1.6912500000000001 12.904446533203124 1.7148750000000001 Q 12.895071533203126 1.7385000000000002 12.895071533203126 1.7655 L 12.895071533203126 1.94775 Q 12.895071533203126 1.9605000000000001 12.886446533203125 1.9695000000000003 Q 12.877821533203125 1.9785000000000001 12.865071533203125 1.9785000000000001 M 13.114072265625 1.9170000000000003 Q 13.107322265625 1.9072500000000001 13.108072265625 1.8963750000000001 Q 13.108822265625 1.8855000000000002 13.120822265625 1.87725 Q 13.128322265625 1.872 13.138447265625 1.8727500000000001 Q 13.148572265625 1.8735000000000002 13.156822265625 1.8825 Q 13.177822265625 1.9072500000000001 13.204822265625 1.9218750000000002 Q 13.231822265625 1.9365 13.270822265625 1.9365 Q 13.288822265625 1.93575 13.306822265625 1.9305 Q 13.324822265625 1.9252500000000001 13.337197265625 1.912125 Q 13.349572265625 1.8990000000000002 13.349572265625 1.87725 Q 13.349572265625 1.8562500000000002 13.336822265625 1.8438750000000002 Q 13.324072265625 1.8315000000000001 13.303822265625 1.823625 Q 13.283572265625 1.8157500000000002 13.259572265625 1.8097500000000002 Q 13.234822265625 1.8030000000000002 13.210822265625 1.794375 Q 13.186822265625 1.7857500000000002 13.167697265625 1.7726250000000001 Q 13.148572265625 1.7595 13.136947265625 1.7396250000000002 Q 13.125322265625 1.7197500000000001 13.125322265625 1.6912500000000001 Q 13.125322265625 1.6575000000000002 13.143697265625 1.6327500000000001 Q 13.162072265625 1.608 13.193197265625 1.5945 Q 13.224322265625 1.5810000000000002 13.261072265625 1.5810000000000002 Q 13.282072265625 1.5810000000000002 13.304947265625 1.5858750000000001 Q 13.327822265625 1.59075 13.349572265625 1.602375 Q 13.371322265625 1.614 13.387822265625 1.6342500000000002 Q 13.394572265625 1.64175 13.395322265625 1.653 Q 13.396072265625 1.66425 13.385572265625001 1.6732500000000001 Q 13.377322265625 1.6792500000000001 13.367197265625 1.6785 Q 13.357072265625 1.67775 13.350322265625 1.6710000000000003 Q 13.334572265625 1.6522500000000002 13.310947265625 1.642125 Q 13.287322265625 1.6320000000000001 13.258822265625 1.6320000000000001 Q 13.240822265625 1.6320000000000001 13.223572265625 1.63725 Q 13.206322265625 1.6425 13.194697265625 1.654875 Q 13.183072265625 1.6672500000000001 13.183072265625 1.689 Q 13.183822265625 1.7092500000000002 13.196572265625 1.7220000000000002 Q 13.209322265625 1.7347500000000002 13.231072265625 1.742625 Q 13.252822265625 1.7505000000000002 13.279072265625 1.7580000000000002 Q 13.303072265625 1.7640000000000002 13.325197265625 1.771875 Q 13.347322265625 1.7797500000000002 13.365322265625 1.7925000000000002 Q 13.383322265625 1.80525 13.393822265625 1.825125 Q 13.404322265625 1.8450000000000002 13.404322265625 1.8750000000000002 Q 13.404322265625 1.9095000000000002 13.384822265625 1.934625 Q 13.365322265625 1.95975 13.333447265625 1.9728750000000002 Q 13.301572265625 1.9860000000000002 13.264822265625 1.9860000000000002 Q 13.223572265625 1.9860000000000002 13.183447265625 1.97025 Q 13.143322265625 1.9545000000000001 13.114072265625 1.9170000000000003" fill="#ffffff" fill-rule="nonzero"></path></g></g><defs><clipPath id="SvgjsClipPath1001"><path d=" M -4.55013661220929 -1.0858183061046445 h 4.150136612209289 v 4.150136612209289 h -4.150136612209289 Z"></path></clipPath><clipPath id="SvgjsClipPath100023b4e6d4-db78-4e54-b006-054b40291a7c"><path d=" M -3.841447230605398 -0.5670512295784833 L -1.1086893816038925 -0.5670512295784833 L -1.1086893816038925 2.5455512295784835 L -3.8414472306053984 2.5455512295784835 Z"></path></clipPath></defs></svg>